<?xml version="1.0" encoding="UTF-8"?>
<svg width="960px" height="960px" viewBox="0 0 960 960" version="1.1" xmlns="http://www.w3.org/2000/svg" xmlns:xlink="http://www.w3.org/1999/xlink">
    <!-- Generator: Sketch 47.1 (45422) - http://www.bohemiancoding.com/sketch -->
    <title>Artboard 3</title>
    <desc>Created with Sketch.</desc>
    <defs></defs>
    <g id="Page-1" stroke="none" stroke-width="1" fill="none" fill-rule="evenodd">
        <g id="Artboard-3" fill-rule="nonzero">
            <g id="victory" transform="translate(232.000000, 26.000000)">
                <path d="M182.5,4.5 C151.8,13.3 123.6,27.6 101.8,51.9 C78.1,78.3 55.4,105.7 37.3,136.3 C20.2,165.3 10.7,197.1 13.6,230.8 C15.7,256 21.6,280.9 25.8,306 C24.2,309.6 23.8,313.3 24.5,317.2 C26.8,330.6 28.7,344.1 32.9,357.1 C36.4,361.6 39.5,366.7 46.5,362.8 C47.6,360.9 48,358.8 48.1,356.6 C49.9,326.8 53.1,297.1 56.9,267.4 C62.2,226.4 67.7,185.5 74.6,144.8 C77.4,128.3 85.8,120.1 101.2,119.1 C144.2,116.1 186.7,109 229.5,104.6 C266,100.8 302.5,98.5 339.2,99.7 C356,100.3 361.5,105.6 365.8,121.8 C370.6,140.3 368.8,158.6 365.9,176.9 C363.4,192.5 366.7,206.5 374.5,219.9 C382.1,232.8 390.3,245.3 397.9,258.2 C410.6,279.8 421.5,302 424.2,327.5 C425.1,336.3 423.2,345.4 426.5,354 C435.2,358.4 439,350.8 444.3,346.7 C450.9,324.7 457.7,302.7 462.2,280.1 C462.8,272.3 464.2,264.6 463.9,256.8 C462.8,227.9 455.8,200.4 445.5,173.2 C425,118.8 396.8,71.1 344.1,41.1 C316.9,25.6 290.4,9.4 259,3.5 C258.9,3.5 211.3,-3.7 182.5,4.5 Z" id="Shape" fill="#CBCBCB"></path>
                <path d="M70,556.7 C73.9,578.4 78.7,599.9 83.4,621.4 C90.9,655.4 97.9,689.5 109.1,722.5 C110.9,725.9 112.1,729.6 113.7,733.1 C113.7,733.1 136.6,800 270.1,772.2 C301.8,765.6 329.9,747.8 359,733.6 C387.4,719.7 408.2,699 416.4,667.4 C418.3,660.2 419.9,652.9 421.9,645.8 C425.5,624.5 427.5,603 426.8,581.4 C426.7,577.1 426.6,572.9 428,568.8 C428.8,555.4 428.2,545.1 427.7,528.6 C427.3,501.3 430.6,474.3 432.2,447.1 C435,444 435.3,440 435.8,436.2 C438.5,413.7 439.4,391 441.6,368.5 C442.3,361.4 446.8,354.2 442.7,346.8 C437.8,349.6 432.8,352.5 427.9,355.3 C423.1,359.6 423.4,365.4 423,371.1 C420.5,406.1 399.5,431.3 377,455.2 C368.7,464 357,465.4 345.2,461 C341.5,459.6 337.9,458.2 334.1,457.3 C330.4,456.6 328.1,453.7 325.2,451.7 C302,435.7 275.1,427.3 250.3,414.5 C244.1,411.3 238.8,413.8 233.9,418.2 C225.5,425.7 216.5,427.2 207,420 C204.3,418.4 201.6,416.6 198.6,415.6 C191.4,413.5 185.4,415.9 179.6,420 C170.5,426.4 162.3,433.7 154.8,441.8 C145.8,451.5 135.2,459.3 124.5,467.1 C118.4,471.6 112.2,472 105.6,468.1 C95.8,462.2 86.6,455.4 79.8,446.1 C63.1,423.1 49.4,398.8 47.6,369.5 C47.5,367.4 47,365.3 45,363.9 C41.5,361.8 38.1,359.6 34.6,357.5 C31.4,360.9 32.7,364.8 33.4,368.6 C38.8,399.4 44.7,430 50.5,460.7 C51.2,464.6 52.7,468.2 55.7,471" id="Shape" fill="#BCB9B4"></path>
                <path d="M432.3,447.1 C435.4,413.6 435.1,379.7 442.8,346.7 C446.7,325.9 453.5,305.8 458.8,285.4 C459.3,283.5 461.1,281.9 462.2,280.2 C466.1,278.6 470,276.9 474,275.3 C490.7,268.6 490.4,269.8 499.3,285.7 C517,317 512.6,346.7 497.2,376.8 C491.4,388.2 486.5,400 481.9,411.9 C476.3,426.2 464.7,435.3 454,445 C448,450.4 439.5,446.2 432.3,447.1 Z" id="Shape" fill="#EFD0A8"></path>
                <path d="M34.7,357.4 C41.7,395.2 48.7,433.1 55.8,470.9 C42.9,469.7 28.2,456.2 28.4,444.4 C28.6,426.9 22.4,411.7 13.5,397.4 C-1.2,373.8 -1.7,348.6 4,322.5 C5.6,315.4 9.6,310 17.9,310.4 C21.7,310.6 23.6,308.2 25.9,306.1 C28.8,323.2 31.8,340.3 34.7,357.4 Z" id="Shape" fill="#EFD0A8"></path>
                <path d="M199.2,417.3 C184.7,415 176.2,425.3 167.3,433.4 C154.4,445.1 142.4,457.6 128.3,468 C119.9,474.2 112.5,475.9 103.2,469.9 C91.8,462.4 81.3,454 73.9,442.5 C58.3,418.5 44.1,393.9 45.2,363.8 C46.2,327.7 51.1,292 55.6,256.2 C60.2,219.7 65.8,183.4 71,147.1 C74.1,125.3 84.2,116.9 106.4,115.7 C127.9,114.5 149.4,111.9 170.7,109.1 C194.9,105.9 219.1,103.2 243.3,100.6 C274.8,97.3 306.3,96.4 337.8,96.7 C358.3,96.9 363.3,101.4 368.9,121.1 C374.2,139.8 372.4,158.4 369.3,176.9 C366.8,191.8 369.3,205 376.8,217.7 C388.7,237.8 401.6,257.5 412.5,278.2 C425.2,302.2 429.6,328.4 427.9,355.5 C427.9,393.7 408.8,423.5 385.9,451.7 C375.2,464.9 358.5,469.4 341.9,463 C338.6,461.7 335.5,459.8 331.8,460 C322.5,441.9 310.6,425.6 295.7,411.7 C287.1,403.7 278.9,395.3 277.5,388.7 C282.2,403.7 281.5,406.4 268.5,413.3 C268.6,413.8 269.1,413.7 269.9,413.2 C287.1,403.1 288,403.1 301.1,418.8 C307.7,426.7 314.5,434.4 320.6,442.7 C323.1,446 326.7,448.9 325.3,453.9 C302.3,440.5 277.3,431.1 253.6,419 C246.4,415.3 241.3,414.6 234.8,421 C224.7,430.8 217.9,430.4 205.5,421.8 C211.6,417.4 219.4,421.3 225.9,417.8 C228.3,416.5 232.4,416.2 232.9,413.7 C234.3,405.8 240.7,404.7 246.6,402.2 C240.6,398.4 237.4,401.6 234.7,406.6 C226.4,422.4 212,424.2 199.6,411.2 C197.4,408.9 195.7,406.1 191,407 C193.7,410.6 200.8,410.9 199.2,417.3 Z" id="Shape" fill="#EFD0A8"></path>
                <path d="M214.1,515.4 C211.3,525.9 208.1,536.3 205.8,546.9 C204.5,552.8 201.8,554.8 196.2,553.4 C178.4,549 162,541.8 149,528.3 C134.9,513.6 135.1,497.1 151.6,485.6 C180.4,465.4 212.1,456.3 248,461.1 C269.3,463.9 290.9,465.1 311.8,470.6 C314.2,471.2 316.6,471.8 319,472.6 C337.6,478.7 339.7,484.4 332,502.6 C326.7,515.1 320.6,527 313,538.2 C304.8,550.2 294.2,551.4 283.6,541.2 C273.8,531.8 266.3,520.6 258.9,509.3 C258.2,508.1 261.9,505.4 259.3,506.1 C249,508.9 239.1,505.9 229,505.4 C221.4,505.1 216,507.5 214.1,515.4 Z" id="Shape" fill="#EFD0A8"></path>
                <path d="M325.3,453.6 C315.4,438.9 303.7,425.7 292,412.5 C287.5,407.4 283.9,406.1 277.9,410.6 C273.9,413.6 269.1,416.5 262,416.3 C283.5,407.9 277.7,392.9 270.2,377.5 C276.3,378.8 279,381.4 279.5,384.2 C282.1,398 293.5,405.1 302.1,414.2 C312.3,425 322.2,436.1 328.7,449.7 C330.2,452.9 332,456 331.7,459.7 C328.7,458.6 326.8,456.3 325.3,453.6 Z" id="Shape" fill="#EBC491"></path>
                <path d="M199.2,417.3 C197.5,414 195.3,411.4 191.3,410.8 C188.7,410.4 184.6,410.6 186,406.4 C187.3,402.8 191.1,401.5 195,402.6 C199.1,403.8 200.7,407.7 202.8,411 C206.9,417.3 213.1,418.2 219.7,416.9 C225.6,415.7 231.6,414.4 231.8,406.1 C231.9,402.8 234.4,399.5 237.4,397.4 C241.7,394.4 245.5,396.5 249.3,398.7 C251.2,399.8 252.8,401.7 251.9,404 C250.3,408 246.4,406.3 243.5,406.6 C239.3,407 235.7,407.2 236.1,413.1 C236.4,417.9 231.7,418.1 228.6,419.1 C221.1,421.5 213.3,422 205.4,421.6 C203.4,420.1 201.3,418.7 199.2,417.3 Z" id="Shape" fill="#EBC492"></path>
                <path d="M214.1,515.4 C209.9,508.9 213.4,505.4 219.3,503.6 C222.3,502.7 225.6,502.6 228.7,502.8 C240.9,503.5 253,507.1 266.1,500.9 C265.3,507.6 262.4,508.8 258.8,509.3 C244.1,512.7 229.3,515.4 214.1,515.4 Z" id="Shape" fill="#EAC492"></path>
                <path d="M459,316.9 C460.9,325.2 458.7,332.2 461.9,338.5 C462.8,340.3 462.8,343 465.5,343 C467.6,343.1 468.1,340.9 469,339.4 C471,335.7 472.5,331.6 478,329.8 C478.4,335.7 476,341.2 478.7,346.4 C479.8,348.5 478.5,350.6 475.5,349.9 C465,347.7 460.3,356 459.3,362.7 C457.9,371.5 447.7,383.5 464,389.8 C465.4,390.4 466.3,391.7 465.3,393.2 C458.4,402.8 458.1,415.6 449.6,424.3 C448.2,425.8 446.6,428.1 444.4,426.6 C442.2,425.1 443.4,422.7 444.7,421 C449.5,414.9 453.4,408.6 452.6,400.3 C452.5,398.7 454,395.8 452.6,395.4 C439.4,391.6 450.2,385.4 451.4,380.9 C455.5,366.1 452.8,351.2 453.5,336.4 C453.7,330.1 453.7,323.8 459,316.9 Z" id="Shape" fill="#EBC491"></path>
                <path d="M27.7,352.7 C29,358.9 26.8,365.2 31.5,372.8 C19.3,366 19,360.6 27.7,352.7 Z" id="Shape" fill="#EBC493"></path>
                <path d="M333.9,295.4 C339.1,301 337.5,304.5 331.3,308.6 C316.3,318.5 298.6,319 279.6,324.8 C288.4,332.5 296.3,339.3 304.2,346.1 C291.5,347.7 285.6,336.7 274.7,335.3 C273.3,345.1 273,354.9 269.2,365.4 C263.4,356.1 259.2,348.1 262.9,337.8 C264.8,332.5 263.4,327.2 258.4,323.5 C251.2,318.2 250.2,311.2 254,303.8 C256.6,298.6 255.3,296.1 250.3,294.1 C240.3,289.9 240.1,282.3 244.2,273.9 C247.4,267.2 251.2,260.7 254.7,254.2 C255.1,250.3 258.2,249.1 261.2,248.1 C282.2,241 303,232.9 324.6,227.6 C330.2,226.2 336.6,224.2 340.4,231.5 C344.4,237.6 341.2,241 336.1,244.1 C328.1,248.9 319.5,252.8 312.5,259.2 C309.1,262.5 304.4,261.5 300.4,263 C284.7,263.9 276.3,274.6 268.9,286.7 C266,291.5 267,294 272.3,296.1 C279.4,298.9 286.8,298.9 294.1,300.2 C305.4,301.9 316.5,302.7 326.9,296.3 C328.9,294.9 331.3,294.1 333.9,295.4 Z" id="Shape" fill="#EBC390"></path>
                <path d="M176.9,238.1 C183.4,242.3 183.9,249.3 184.1,255.9 C184.5,268.7 183.9,281.5 184.3,294.3 C184.6,304.2 177.1,310.1 172.4,318.1 C179.8,316.5 183.5,316.9 181,326 C176.3,343.4 173.1,361.1 169.2,378.7 L169.2,378.7 C165.6,375.1 167.5,370.8 167.7,366.7 C168,359.8 175.8,352.8 167.6,345.6 C166.6,344.7 169,340.1 170.7,334.4 C152.1,349.6 134.5,345.1 117.1,337.5 C110.9,334.8 103.9,337.5 96.4,334.3 C100.9,330.7 104.9,332 108.5,331.7 C118.7,330.9 128.9,332.4 139.3,330.2 C154.5,327 166.4,320 173.6,305.9 C177.4,295.5 177.4,295.5 162.4,286.2 C160.3,284.9 158.2,283.5 156.3,281.9 C147.4,275.8 137.9,272.5 127,275.9 C122.6,277.1 118.6,280.4 113.6,278.1 C108,272.3 101.5,281.9 94.5,275.7 C104.6,268.7 115.6,266.3 127.2,265.4 C127.5,265.4 128.1,265.3 128.2,265.2 C129,263 127,263.5 126.1,263 C128,257.3 133.5,258.2 137.6,257.3 C150.3,254.6 164.3,255.1 171.3,240.8 C172.2,239 175,239.1 176.9,238.1 Z" id="Shape" fill="#EBC391"></path>
                <path d="M176.9,238.1 C166.8,260.5 144.3,257.4 126,263 C109.7,263.4 94.8,267.6 81.3,277.3 C77,280.3 69.9,285.5 66.1,280.9 C61.5,275.4 68.9,270 72.5,265.9 C85.8,250.9 103.8,244.1 122.9,240.6 C140.7,237.4 158.8,236.5 176.9,238.1 Z" id="Shape" fill="#5F5F5C"></path>
                <path d="M244.3,233.8 C242.4,230.9 239.6,231.2 236.7,231.8 C211.2,236.5 185.7,232 160.3,230.2 C147.6,229.3 135.7,230.1 123.7,233.2 C111.2,236.4 98.9,240.8 85.7,241.1 C104,234.3 122.2,227.6 139.1,217.7 C145,214.3 152.3,215.5 158.9,217.4 C176.3,222.5 194.3,226.3 212.1,226.2 C232.1,226.1 252.4,224 271.9,219 C285.9,215.4 299.8,215.6 313.9,216.2 C320,216.4 314.9,218.8 314.6,220.3 C313.2,222.6 310.9,223.9 308.5,224.3 C288.4,227.3 268.7,232.2 248.5,234.5 C247.1,234.7 245.7,234.4 244.3,233.8 Z" id="Shape" fill="#EBC391"></path>
                <path d="M244.3,233.8 C262.4,227.9 281.5,226.6 300,222.7 C304.8,221.7 309.7,221.1 314.6,220.4 C325.1,220.7 335.7,220.2 345.7,224 C349.3,225.4 354.9,226.7 353.9,230.6 C352.5,236.5 347.7,230.5 344.4,231.3 C343.1,231.6 341.6,231.4 340.2,231.5 C336.4,228.9 332.1,228.4 327.9,229.6 C303.1,236.6 278.2,243.6 254.5,254.2 C248.3,256.1 246.2,252.3 245.4,247.3 C244.9,242.9 244.7,238.3 244.3,233.8 Z" id="Shape" fill="#5F5F5C"></path>
                <path d="M330.7,212.2 C307.8,206.8 286.1,201.9 264.6,196.4 C249.7,192.6 236.3,195 224.8,205 C213.6,214.6 201.7,216.7 188.3,210.9 C167,201.7 145.7,200.6 124.4,211 C121.7,212.3 118.5,212.8 115.4,213 C129.1,199.4 146,197.2 164,200.2 C170.6,201.3 177.4,203 183.3,206 C197.7,213.4 210.6,210.5 221.7,200.6 C232.6,190.9 244.9,188.4 258.2,191 C280,195.4 301.7,200.9 323.3,206.2 C325.9,206.6 329,207.4 330.7,212.2 Z" id="Shape" fill="#EBC492"></path>
                <path d="M324.1,148.9 C318,151.7 313.2,148.4 308.4,146.8 C298.3,143.5 288.4,139.5 278.3,136.2 C270.2,133.6 262.1,131.4 253.4,134.8 C229.7,144 205.5,143.2 181.3,137.1 C166.6,133.4 152.6,134.8 138.7,140.5 C131.3,143.5 123.5,145.5 115.5,146.6 C133.2,135.5 151.8,127.5 173.6,131.8 C187.1,134.5 200.6,137.1 214.5,137.3 C224.3,137.5 233.4,136.2 242.4,131.9 C252,127.3 262.2,127.4 272.5,130.6 C285.7,134.7 299,138.4 312.2,142.5 C316.4,143.8 321.2,144.4 324.1,148.9 Z" id="Shape" fill="#EBC491"></path>
                <path d="M140.1,173.4 C154.4,168.5 168.6,165.1 182.7,167.7 C193,169.6 202.5,168.8 212,166.5 C220,164.6 227.3,164.9 235,167 C248,170.5 260.6,169.8 273.6,165.5 C288.6,160.5 304,161 320.6,166.6 C313.8,168.9 313.7,169 309.9,168 C299.8,165.2 289.4,165.3 279.7,168.6 C261.6,174.7 243.5,175 225.3,170.4 C221.6,169.5 218.5,169.8 214.9,170.6 C204.2,172.9 193.7,174.4 182.4,171.8 C171,169.2 159.2,172.9 147.7,174.6 C145.5,175 143.2,176.6 140.1,173.4 Z" id="Shape" fill="#EBC492"></path>
                <path d="M333.9,295.4 C321.3,303.9 307.9,307 293.2,301.8 C294.8,299.5 297.3,298.9 299.7,298 C314.6,298.5 327.2,293 338.8,284 C343.7,280.2 343.4,277.7 338.4,274.5 C332.7,270.8 325.3,270.8 320.4,265.7 C319.8,264.1 319.8,262.7 321,261.4 C330.8,264.2 340.6,266.9 349.4,272.2 C355.4,275.8 356.4,279.8 350.4,284.2 C344.9,288 339.4,291.7 333.9,295.4 Z" id="Shape" fill="#CBAF8C"></path>
                <path d="M113.6,278.1 C117.9,276.7 122.2,275.3 126.5,273.9 C132.2,271.8 137.6,273.1 143,275.2 C144.6,276.7 143.9,278 142.6,279.2 C139.3,281.1 135.7,279.9 132.2,280 C120.2,280.4 110.4,285.7 102.4,294.5 C97.9,299.4 98.2,303.2 104.9,305.6 C110.6,307.6 116.3,309.5 122.3,310.7 C125.3,311.7 128.6,311.9 131,314.3 C131.2,316.2 130.9,317.5 128.5,316.8 C115.8,317.1 104.2,313.1 92.9,307.5 C87.9,305 87.2,302.5 90.6,297.6 C96.6,289.1 104,282.4 113.6,278.1 Z" id="Shape" fill="#CAAF8D"></path>
                <path d="M128.5,316.8 C129.3,316.2 130,315.6 130.8,315 C133.7,310.8 138.6,312.4 142.3,310.8 C149.3,309.1 155.8,306.2 162.2,303.3 C170.5,299.5 170.6,298.3 163.8,291.8 C162.3,290.3 160.6,288.9 160,286.8 C160.2,285.1 160.6,283.8 162.8,284.7 C167.1,284.8 169.9,288 173,290.1 C181.7,296.2 181.6,299 173.5,306 C163.2,309.8 152.9,313.6 142.6,317.4 C137.9,319.1 133.1,320.4 128.5,316.8 Z" id="Shape" fill="#CCB08E"></path>
                <path d="M169.2,378.8 C170.5,378.8 174.1,377.6 172.6,379.6 C163.9,391.1 164.2,403 170.3,415.7 C152.7,399.7 152.7,392.2 169.2,378.8 C169.3,378.7 169.2,378.8 169.2,378.8 Z" id="Shape" fill="#EBC391"></path>
                <path d="M157,420.8 C157.1,428 151.7,432 148.1,436.7 C144.4,441.5 142.3,447.1 137.2,453.5 C139.4,438.2 148.9,429.9 157,420.8 Z" id="Shape" fill="#ECC695"></path>
                <path d="M321,261.4 C321,262.7 321,263.9 321,265.2 C316.2,268.5 312,266.4 307.9,263.6 C307.9,259.9 309.8,259.8 312.5,261.2 C315.4,261.2 318.2,261.3 321,261.4 Z" id="Shape" fill="#C9AC89"></path>
                <path d="M312.5,261.1 C311.1,261.7 309.6,262.3 308.2,262.9 C307.6,263.7 306.8,264.1 305.8,264.1 C303.4,263.7 301.1,263.2 299.6,261.1 C303.4,257.4 308.1,259.6 312.4,259.1 C312.4,259.8 312.5,260.5 312.5,261.1 Z" id="Shape" fill="#CCB191"></path>
                <path d="M160.6,500.3 C171.7,488.5 184.5,483.3 200.4,483.2 C230.8,482.9 261.1,481.3 291.1,475.4 C295.9,474.5 301,475.3 306.1,476.4 C258.4,489.3 208.7,490.4 160.6,500.3 Z" id="Shape" fill="#EBC491"></path>
                <path d="M299.6,261.1 C301.9,261.2 304.4,260.7 306.1,263 C303.6,266.6 299.4,266.9 295.7,267.5 C284.8,269.5 280.4,278.2 275.7,286.4 C272.8,291.5 277.4,292.8 280.8,294.8 C286.7,298.3 294.4,294.7 299.7,300 C298,302.1 295.5,301.6 293.2,301.8 C284.4,302.8 276.3,300.3 268.2,297.4 C264.1,295.9 262.8,293.5 264.3,289.1 C269.2,274.2 283.9,262.4 299.6,261.1 Z" id="Shape" fill="#C9AC89"></path>
                <path d="M143.5,276.2 C137.8,275.8 132.4,273 126.5,273.9 C138.7,268.8 148.8,273.4 158.5,280.5 C152.2,283.9 147.4,281.6 143.5,276.2 Z" id="Shape" fill="#EACAA0"></path>
                <path d="M143.5,276.2 C148.4,278 153.1,280.4 158.5,280.5 C159.9,281.9 161.4,283.3 162.8,284.6 C162.1,285.2 161.4,285.8 160.7,286.5 C152.9,286.9 145.7,285.9 141.2,278.4 C142,277.7 142.8,276.9 143.5,276.2 Z" id="Shape" fill="#CDB393"></path>
                <path d="M299.6,300.1 C291.3,299.1 283,299.5 275.1,295.6 C269.6,292.9 269.7,290.5 272.2,285.9 C279.6,272.3 289.6,263 306,263 C306.7,263 307.5,263 308.2,263 C312.5,263.7 316.7,264.5 321,265.2 C328.4,267.6 335.8,269.7 342.5,273.8 C348.3,277.4 349.2,280.4 343,284.5 C329.8,293.2 317.1,303.2 299.6,300.1 Z" id="Shape" fill="#FDFDFD"></path>
                <path d="M141.2,278.4 C147.7,281.1 154.2,283.8 160.7,286.5 C164.9,290.5 173.6,292.1 172.8,298.4 C172,305.1 163.2,305.3 157.7,307.9 C153.4,310 149,312.7 143.9,312.7 C142,313.8 141.2,312.7 140.7,311 C140.8,309.1 141.9,307.7 142.9,306.2 C148.7,296.7 148.3,295.2 138.4,288.5 C132.2,283.9 126.7,284.5 121.5,290.2 C116.1,296 118.1,301.1 122.6,306.1 C123.8,307.4 124.8,308.9 125.1,310.7 C124.7,312.4 124,313.6 122,312.6 C118.6,312 115,311.6 111.7,310.6 C105.8,308.7 97,308.5 95.6,302.3 C94,295.5 101.9,291.1 106.8,286.9 C116.6,278.5 128.3,275.4 141.2,278.4 Z" id="Shape" fill="#FDFDFD"></path>
                <path d="M121.9,312.6 C122.7,312 123.5,311.4 124.3,310.8 C124.9,309.9 125.8,309.5 126.9,309.4 C131.7,310.9 137,306.8 141.5,310.9 C142.3,311.5 143.2,312.2 144,312.8 C140,316 135.2,314.3 130.8,315.1 C127.8,314.2 124.4,315.3 121.9,312.6 Z" id="Shape" fill="#F7F6F4"></path>
                <path d="M310.4,269.4 C323,274.2 327.6,280.3 324,287.7 C318.9,298.4 308.4,300.4 295.3,293.2 C301,285.8 311,280.9 310.4,269.4 Z" id="Shape" fill="#63534B"></path>
                <path d="M310.4,269.4 C313.6,279.5 308.6,287.4 295.3,293.2 C290.7,288.7 288.1,283.7 292.6,277.8 C297,272.1 301.6,266.2 310.4,269.4 Z" id="Shape" fill="#463A35"></path>
                <path d="M126.3,310.5 C125.6,310.5 125,310.6 124.3,310.9 C112.5,299.5 112.1,295.5 121.2,286.7 C127.6,280.5 136,280.5 141.8,287.1 C145.4,298 137.7,307.3 126.3,310.5 Z" id="Shape" fill="#453934"></path>
                <path d="M124.3,310.8 C132.7,305.3 139.4,295 139.3,284.7 C152,292 156.6,304.6 141.4,310.8 C136.8,312.8 129.3,315.1 124.3,310.8 Z" id="Shape" fill="#64544C"></path>
            </g>
            <g id="magician" transform="translate(34.000000, 227.000000)">
                <path d="M554,690.343439 C467.136416,706.529633 380.274418,711.587122 293.429867,705.515907 C253.953773,702.765957 214.47768,697.708467 175,690.343439 C196.983151,605.699718 201.581215,521.073503 188.778329,436.429783 C222.975928,392.760001 305.717275,391.867222 342.324139,389.486478 C422.840207,384.263483 459.667537,422.512934 540.202638,436.429783 C527.418785,521.073503 532.016849,605.698127 554,690.343439 Z" id="Shape" fill="#666666"></path>
                <path d="M557,365.905778 L556.703115,370.639253 C554.463708,379.218178 552.390302,387.81783 550.519607,396.396755 C547.483719,410.263972 542.082434,424.132783 539.989874,438 C458.943464,424.057851 380.445297,417.438293 299.418041,422.670783 C262.578764,425.055855 226.001968,431.657877 189.162691,438 C187.070131,424.186989 184.516281,410.356441 181.49795,396.525893 C179.609698,387.891167 177.536292,379.273979 175.296885,370.639253 L175,366.054048 C191.180232,365.017753 207.378022,364.131322 223.575811,363.372436 C246.771148,362.281935 269.985639,361.449711 293.20013,360.894894 C365.731048,359.137976 438.298678,359.970201 510.77373,363.372436 C526.195788,364.093059 541.597096,364.944415 557,365.905778 Z" id="Shape" fill="#F95428"></path>
                <g id="Group" transform="translate(410.320022, 171.185632) rotate(-102.000000) translate(-410.320022, -171.185632) translate(315.820022, -205.314368)" fill="#FACE17">
                    <polygon id="Shape" points="53.9503907 691.765843 64.7563907 711.522843 84.5133907 722.327843 64.7563907 733.133843 53.9503907 752.890843 43.1453907 733.133843 23.3873907 722.327843 43.1453907 711.522843"></polygon>
                    <polygon id="Shape" points="121.125313 82.4969433 131.930313 102.253943 151.688313 113.059943 131.930313 123.864943 121.125313 143.622943 110.319313 123.864943 90.5633134 113.059943 110.319313 102.253943"></polygon>
                    <polygon id="Shape-Copy" transform="translate(31.066071, 49.101364) rotate(-32.000000) translate(-31.066071, -49.101364) " points="31.0657033 26.6490439 39.0033182 41.163015 53.5180239 49.1013645 39.0033182 57.0389794 31.0657033 71.553685 23.1273538 57.0389794 8.61411741 49.1013645 23.1273538 41.163015"></polygon>
                    <polygon id="Shape" points="170.291 0 176.758 11.825 188.582 18.291 176.758 24.758 170.291 36.582 163.825 24.758 152 18.291 163.825 11.825"></polygon>
                </g>
                <path d="M557,365.657532 L556.703115,370.193263 C554.463708,378.413798 552.390302,386.654194 550.519607,394.874729 C537.282687,394.095604 524.028209,393.421889 510.77373,392.819977 C415.084187,388.514928 319.247797,388.514928 223.575811,392.819977 C209.544005,393.458554 195.510603,394.165878 181.49795,395 C179.609698,386.725995 177.536292,378.468796 175.296885,370.194791 L175,365.801136 C191.180232,364.808133 207.378022,363.958734 223.575811,363.23155 C246.771148,362.186606 269.985639,361.389148 293.20013,360.85751 C365.731048,359.173988 438.298678,359.971446 510.77373,363.23155 C526.195788,363.920541 541.597096,364.736331 557,365.657532 Z" id="Shape" fill="#E54728"></path>
                <path d="M295.049653,704 C255.033638,701.251006 215.017623,696.195274 175,688.832805 C197.283819,604.218501 201.944771,519.621696 188.966777,435.007392 C226.07432,428.678977 261.145086,424.379917 298.252628,422 C304.704646,497.555986 313.249713,623.168745 295.049653,704 Z" id="Shape" fill="#4D4D4D"></path>
                <path d="M298,423.114116 C261.662383,425.465004 225.307447,429.748775 188.96983,436 C185.62891,413.873995 181.063092,391.730703 175.292842,369.604698 L175,365.08521 C190.959897,364.065339 206.937113,363.190042 222.914329,362.442032 C245.793802,361.367161 268.692169,360.546864 291.590536,360 C291.590536,359.998429 294.785034,385.149474 298,423.114116 Z" id="Shape" fill="#E54728"></path>
                <path d="M13.8293375,392.995257 C6.90074277,392.995257 0.917607521,387.827418 0.0947075674,380.810186 C-0.791859693,373.249389 4.64532839,366.401724 12.2392465,365.520609 C66.0588135,359.262468 120.651938,354.384636 174.506522,351.026571 C190.262589,350.021845 206.641004,349.120128 223.164262,348.349944 C318.603148,343.884145 415.396556,343.88256 510.852951,348.349944 C525.805218,349.04723 541.387792,349.898235 557.162959,350.87919 C612.004386,354.270535 667.385394,359.195909 721.760458,365.520609 C729.354376,366.403309 734.793156,373.250973 733.904997,380.811771 C733.01843,388.372569 726.14236,393.798721 718.548442,392.903342 C664.669983,386.635693 609.793539,381.754692 555.443941,378.395042 C539.805659,377.420426 524.371112,376.578929 509.558913,375.887982 C414.963619,371.460217 319.044044,371.460217 224.464667,375.887982 C208.095802,376.650242 191.878147,377.542451 176.258965,378.540838 C122.877111,381.871963 68.7821826,386.702252 15.4528539,392.903342 C14.9069067,392.963562 14.3641429,392.995257 13.8293375,392.995257 Z" id="Shape" fill="#4D4D4D"></path>
            </g>
            <g id="magic" transform="translate(743.039278, 480.039278) rotate(-8.000000) translate(-743.039278, -480.039278) translate(607.539278, 344.539278)">
                <path d="M85.4198721,54.5866777 L50.1830466,81.5846984 L238.105281,269.524387 C241.94711,273.366193 252.094807,269.446673 260.771193,260.770778 C269.447579,252.094884 273.366244,241.946371 269.524416,238.104126 L85.4198721,54.5866777 Z" id="Shape" fill="#515262"></path>
                <path d="M7,39.1315288 L63.0363937,94.5383413 C66.8858158,98.3445144 77.0547318,94.460904 85.7492605,85.8644953 C94.4437892,77.2680866 98.3710885,67.2129856 94.5216664,63.4068125 L38.4857127,8 L7,39.1315288 Z" id="Shape" fill="#D9D9D9"></path>
                <path d="M251.076039,257.072212 L22.204967,33.3142048 L8.01156273,39.9901128 L238.586977,269.523979 C242.441218,273.366846 252.6217,269.446244 261.326117,260.767952 C263.544838,258.555778 265.451696,256.248301 267,253.973763 C260.331943,258.486387 253.947999,259.935697 251.076039,257.072212 Z" id="Shape" fill="#000000" opacity="0.1"></path>
                <ellipse id="Oval" fill="#E6E6E6" transform="translate(22.980970, 23.680971) rotate(-135.000000) translate(-22.980970, -23.680971) " cx="22.9809704" cy="23.6809712" rx="10" ry="22.2000008"></ellipse>
            </g>
        </g>
    </g>
</svg>