<?xml version="1.0" encoding="UTF-8"?>
<svg width="47px" height="47px" viewBox="0 0 47 47" version="1.1" xmlns="http://www.w3.org/2000/svg" xmlns:xlink="http://www.w3.org/1999/xlink">
    <title>Artboard 3</title>
    <desc>Created with Sketch By Sagi H</desc>
    <defs></defs>
    <g id="Page-1" stroke="none" stroke-width="1" fill="none" fill-rule="evenodd">
        <g id="Artboard-3" fill-rule="nonzero">
            <g id="Group-2" transform="translate(1.500000, 0.000000)">
                <g id="victory" transform="translate(10.000000, 0.000000)">
                    <path d="M9.28571429,0.236842105 C7.72367906,0.7 6.2888454,1.45263158 5.17964775,2.73157895 C3.97377691,4.12105263 2.81878669,5.56315789 1.89784736,7.17368421 C1.02778865,8.7 0.544422701,10.3736842 0.691976517,12.1473684 C0.798825832,13.4736842 1.09902153,14.7842105 1.31272016,16.1052632 C1.23131115,16.2947368 1.2109589,16.4894737 1.24657534,16.6947368 C1.36360078,17.4 1.46027397,18.1105263 1.6739726,18.7947368 C1.85205479,19.0315789 2.00978474,19.3 2.36594912,19.0947368 C2.42191781,18.9947368 2.44227006,18.8842105 2.44735812,18.7684211 C2.53894325,17.2 2.70176125,15.6368421 2.89510763,14.0736842 C3.16477495,11.9157895 3.4446184,9.76315789 3.79569472,7.62105263 C3.93816047,6.75263158 4.36555773,6.32105263 5.14911937,6.26842105 C7.3369863,6.11052632 9.49941292,5.73684211 11.6771037,5.50526316 C13.5342466,5.30526316 15.3913894,5.18421053 17.2587084,5.24736842 C18.1135029,5.27894737 18.3933464,5.55789474 18.6121331,6.41052632 C18.8563601,7.38421053 18.764775,8.34736842 18.6172211,9.31052632 C18.4900196,10.1315789 18.6579256,10.8684211 19.0547945,11.5736842 C19.4414873,12.2526316 19.8587084,12.9105263 20.2454012,13.5894737 C20.8915851,14.7263158 21.446184,15.8947368 21.5835616,17.2368421 C21.6293542,17.7 21.532681,18.1789474 21.7005871,18.6315789 C22.1432485,18.8631579 22.3365949,18.4631579 22.6062622,18.2473684 C22.9420744,17.0894737 23.2880626,15.9315789 23.5170254,14.7421053 C23.5475538,14.3315789 23.6187867,13.9263158 23.6035225,13.5157895 C23.5475538,11.9947368 23.1913894,10.5473684 22.667319,9.11578947 C21.6242661,6.25263158 20.1894325,3.74210526 17.5080235,2.16315789 C16.1240705,1.34736842 14.7757339,0.494736842 13.1780822,0.184210526 C13.1729941,0.184210526 10.7510763,-0.194736842 9.28571429,0.236842105 Z" id="Shape" fill="#CBCBCB"></path>
                    <path d="M3.56164384,29.3 C3.76007828,30.4421053 4.00430528,31.5736842 4.24344423,32.7052632 C4.62504892,34.4947368 4.98121331,36.2894737 5.55107632,38.0263158 C5.64266145,38.2052632 5.7037182,38.4 5.7851272,38.5842105 C5.7851272,38.5842105 6.95029354,42.1052632 13.7428571,40.6421053 C15.355773,40.2947368 16.7855186,39.3578947 18.2661448,38.6105263 C19.7111546,37.8789474 20.7694716,36.7894737 21.1866928,35.1263158 C21.2833659,34.7473684 21.364775,34.3631579 21.4665362,33.9894737 C21.6497065,32.8684211 21.7514677,31.7368421 21.7158513,30.6 C21.7107632,30.3736842 21.7056751,30.1526316 21.776908,29.9368421 C21.8176125,29.2315789 21.7870841,28.6894737 21.7616438,27.8210526 C21.7412916,26.3842105 21.9091977,24.9631579 21.9906067,23.5315789 C22.1330724,23.3684211 22.1483366,23.1578947 22.1737769,22.9578947 C22.3111546,21.7736842 22.3569472,20.5789474 22.4688845,19.3947368 C22.504501,19.0210526 22.7334638,18.6421053 22.5248532,18.2526316 C22.2755382,18.4 22.021135,18.5526316 21.77182,18.7 C21.527593,18.9263158 21.5428571,19.2315789 21.5225049,19.5315789 C21.3953033,21.3736842 20.3268102,22.7 19.1819961,23.9578947 C18.7596869,24.4210526 18.1643836,24.4947368 17.5639922,24.2631579 C17.3757339,24.1894737 17.1925636,24.1157895 16.9992172,24.0684211 C16.8109589,24.0315789 16.6939335,23.8789474 16.5463796,23.7736842 C15.3659491,22.9315789 13.9972603,22.4894737 12.7354207,21.8157895 C12.4199609,21.6473684 12.1502935,21.7789474 11.9009785,22.0105263 C11.4735812,22.4052632 11.0156556,22.4842105 10.5322896,22.1052632 C10.3949119,22.0210526 10.2575342,21.9263158 10.1048924,21.8736842 C9.73855186,21.7631579 9.4332681,21.8894737 9.13816047,22.1052632 C8.67514677,22.4421053 8.25792564,22.8263158 7.87632094,23.2526316 C7.4183953,23.7631579 6.87906067,24.1736842 6.33463796,24.5842105 C6.02426614,24.8210526 5.70880626,24.8421053 5.37299413,24.6368421 C4.87436399,24.3263158 4.40626223,23.9684211 4.06027397,23.4789474 C3.21056751,22.2684211 2.51350294,20.9894737 2.42191781,19.4473684 C2.41682975,19.3368421 2.39138943,19.2263158 2.28962818,19.1526316 C2.11154599,19.0421053 1.93855186,18.9263158 1.76046967,18.8157895 C1.59765166,18.9947368 1.66379648,19.2 1.69941292,19.4 C1.9741683,21.0210526 2.27436399,22.6315789 2.56947162,24.2473684 C2.60508806,24.4526316 2.681409,24.6421053 2.83405088,24.7894737" id="Shape" fill="#BCB9B4"></path>
                    <path d="M21.9956947,23.5315789 C22.1534247,21.7684211 22.1381605,19.9842105 22.5299413,18.2473684 C22.7283757,17.1526316 23.074364,16.0947368 23.3440313,15.0210526 C23.3694716,14.9210526 23.4610568,14.8368421 23.5170254,14.7473684 C23.7154599,14.6631579 23.9138943,14.5736842 24.1174168,14.4894737 C24.9671233,14.1368421 24.9518591,14.2 25.4046967,15.0368421 C26.3052838,16.6842105 26.081409,18.2473684 25.2978474,19.8315789 C25.0027397,20.4315789 24.7534247,21.0526316 24.5193738,21.6789474 C24.2344423,22.4315789 23.644227,22.9105263 23.0998043,23.4210526 C22.7945205,23.7052632 22.3620352,23.4842105 21.9956947,23.5315789 Z" id="Shape" fill="#EFD0A8"></path>
                    <path d="M1.76555773,18.8105263 C2.12172211,20.8 2.4778865,22.7947368 2.83913894,24.7842105 C2.18277886,24.7210526 1.43483366,24.0105263 1.44500978,23.3894737 C1.45518591,22.4684211 1.13972603,21.6684211 0.686888454,20.9157895 C-0.0610567515,19.6736842 -0.0864970646,18.3473684 0.203522505,16.9736842 C0.284931507,16.6 0.488454012,16.3157895 0.910763209,16.3368421 C1.10410959,16.3473684 1.20078278,16.2210526 1.31780822,16.1105263 C1.46536204,17.0105263 1.61800391,17.9105263 1.76555773,18.8105263 Z" id="Shape" fill="#EFD0A8"></path>
                    <path d="M10.1354207,21.9631579 C9.39765166,21.8421053 8.96516634,22.3842105 8.51232877,22.8105263 C7.85596869,23.4263158 7.24540117,24.0842105 6.52798434,24.6315789 C6.10058708,24.9578947 5.72407045,25.0473684 5.25088063,24.7315789 C4.67084149,24.3368421 4.13659491,23.8947368 3.76007828,23.2894737 C2.96634051,22.0263158 2.24383562,20.7315789 2.29980431,19.1473684 C2.35068493,17.2473684 2.6,15.3684211 2.82896282,13.4842105 C3.0630137,11.5631579 3.34794521,9.65263158 3.61252446,7.74210526 C3.7702544,6.59473684 4.28414873,6.15263158 5.41369863,6.08947368 C6.50763209,6.02631579 7.60156556,5.88947368 8.6853229,5.74210526 C9.91663405,5.57368421 11.1479452,5.43157895 12.3792564,5.29473684 C13.9819961,5.12105263 15.5847358,5.07368421 17.1874755,5.08947368 C18.2305284,5.1 18.4849315,5.33684211 18.769863,6.37368421 C19.0395303,7.35789474 18.9479452,8.33684211 18.7902153,9.31052632 C18.6630137,10.0947368 18.7902153,10.7894737 19.17182,11.4578947 C19.7772994,12.5157895 20.4336595,13.5526316 20.9882583,14.6421053 C21.6344423,15.9052632 21.858317,17.2842105 21.77182,18.7105263 C21.77182,20.7210526 20.8,22.2894737 19.6348337,23.7736842 C19.090411,24.4684211 18.2407045,24.7052632 17.3960861,24.3684211 C17.22818,24.3 17.0704501,24.2 16.8821918,24.2105263 C16.409002,23.2578947 15.8035225,22.4 15.0454012,21.6684211 C14.6078278,21.2473684 14.1906067,20.8052632 14.1193738,20.4578947 C14.3585127,21.2473684 14.3228963,21.3894737 13.6614481,21.7526316 C13.6665362,21.7789474 13.6919765,21.7736842 13.732681,21.7473684 C14.6078278,21.2157895 14.6536204,21.2157895 15.3201566,22.0421053 C15.6559687,22.4578947 16.0019569,22.8631579 16.3123288,23.3 C16.4395303,23.4736842 16.6227006,23.6263158 16.5514677,23.8894737 C15.3812133,23.1842105 14.1091977,22.6894737 12.9033268,22.0526316 C12.5369863,21.8578947 12.2774951,21.8210526 11.946771,22.1578947 C11.4328767,22.6736842 11.0868885,22.6526316 10.4559687,22.2 C10.7663405,21.9684211 11.1632094,22.1736842 11.4939335,21.9894737 C11.616047,21.9210526 11.8246575,21.9052632 11.8500978,21.7736842 C11.9213307,21.3578947 12.2469667,21.3 12.5471624,21.1684211 C12.2418787,20.9684211 12.0790607,21.1368421 11.941683,21.4 C11.5193738,22.2315789 10.7866928,22.3263158 10.155773,21.6421053 C10.0438356,21.5210526 9.95733855,21.3736842 9.71819961,21.4210526 C9.8555773,21.6105263 10.2168297,21.6263158 10.1354207,21.9631579 Z" id="Shape" fill="#EFD0A8"></path>
                    <path d="M10.8935421,27.1263158 C10.7510763,27.6789474 10.5882583,28.2263158 10.4712329,28.7842105 C10.4050881,29.0947368 10.2677104,29.2 9.98277886,29.1263158 C9.07710372,28.8947368 8.24266145,28.5157895 7.58121331,27.8052632 C6.86379648,27.0315789 6.8739726,26.1631579 7.71350294,25.5578947 C9.17886497,24.4947368 10.7917808,24.0157895 12.6183953,24.2684211 C13.7021526,24.4157895 14.8011742,24.4789474 15.8645793,24.7684211 C15.9866928,24.8 16.1088063,24.8315789 16.2309198,24.8736842 C17.1772994,25.1947368 17.2841487,25.4947368 16.8923679,26.4526316 C16.6227006,27.1105263 16.3123288,27.7368421 15.925636,28.3263158 C15.5084149,28.9578947 14.9690802,29.0210526 14.4297456,28.4842105 C13.9311155,27.9894737 13.5495108,27.4 13.1729941,26.8052632 C13.1373777,26.7421053 13.325636,26.6 13.1933464,26.6368421 C12.6692759,26.7842105 12.1655577,26.6263158 11.6516634,26.6 C11.2649706,26.5842105 10.9902153,26.7105263 10.8935421,27.1263158 Z" id="Shape" fill="#EFD0A8"></path>
                    <path d="M16.5514677,23.8736842 C16.0477495,23.1 15.4524462,22.4052632 14.8571429,21.7105263 C14.62818,21.4421053 14.4450098,21.3736842 14.139726,21.6105263 C13.9362035,21.7684211 13.6919765,21.9210526 13.3307241,21.9105263 C14.4246575,21.4684211 14.1295499,20.6789474 13.7479452,19.8684211 C14.058317,19.9368421 14.1956947,20.0736842 14.221135,20.2210526 C14.3534247,20.9473684 14.9334638,21.3210526 15.3710372,21.8 C15.8900196,22.3684211 16.3937378,22.9526316 16.7244618,23.6684211 C16.8007828,23.8368421 16.8923679,24 16.8771037,24.1947368 C16.7244618,24.1368421 16.6277886,24.0157895 16.5514677,23.8736842 Z" id="Shape" fill="#EBC491"></path>
                    <path d="M10.1354207,21.9631579 C10.0489237,21.7894737 9.9369863,21.6526316 9.7334638,21.6210526 C9.60117417,21.6 9.3925636,21.6105263 9.46379648,21.3894737 C9.52994129,21.2 9.72328767,21.1315789 9.92172211,21.1894737 C10.1303327,21.2526316 10.2117417,21.4578947 10.318591,21.6315789 C10.5272016,21.9631579 10.8426614,22.0105263 11.1784736,21.9421053 C11.4786693,21.8789474 11.783953,21.8105263 11.7941292,21.3736842 C11.7992172,21.2 11.9264188,21.0263158 12.0790607,20.9157895 C12.2978474,20.7578947 12.4911937,20.8684211 12.6845401,20.9842105 C12.7812133,21.0421053 12.8626223,21.1421053 12.8168297,21.2631579 C12.7354207,21.4736842 12.5369863,21.3842105 12.3894325,21.4 C12.1757339,21.4210526 11.9925636,21.4315789 12.0129159,21.7421053 C12.02818,21.9947368 11.7890411,22.0052632 11.6313112,22.0578947 C11.2497065,22.1842105 10.8528376,22.2105263 10.4508806,22.1894737 C10.3491194,22.1105263 10.2422701,22.0368421 10.1354207,21.9631579 Z" id="Shape" fill="#EBC492"></path>
                    <path d="M10.8935421,27.1263158 C10.6798434,26.7842105 10.8579256,26.6 11.1581213,26.5052632 C11.3107632,26.4578947 11.4786693,26.4526316 11.6363992,26.4631579 C12.2571429,26.5 12.8727984,26.6894737 13.5393346,26.3631579 C13.4986301,26.7157895 13.3510763,26.7789474 13.1679061,26.8052632 C12.4199609,26.9842105 11.6669276,27.1263158 10.8935421,27.1263158 Z" id="Shape" fill="#EAC492"></path>
                    <path d="M23.3542074,16.6789474 C23.4508806,17.1157895 23.3389432,17.4842105 23.5017613,17.8157895 C23.5475538,17.9105263 23.5475538,18.0526316 23.6849315,18.0526316 C23.7917808,18.0578947 23.8172211,17.9421053 23.8630137,17.8631579 C23.964775,17.6684211 24.0410959,17.4526316 24.3209393,17.3578947 C24.3412916,17.6684211 24.2191781,17.9578947 24.3565558,18.2315789 C24.4125245,18.3421053 24.3463796,18.4526316 24.1937378,18.4157895 C23.6594912,18.3 23.4203523,18.7368421 23.3694716,19.0894737 C23.2982387,19.5526316 22.7792564,20.1842105 23.6086106,20.5157895 C23.6798434,20.5473684 23.725636,20.6157895 23.6747554,20.6947368 C23.3236791,21.2 23.3084149,21.8736842 22.8759295,22.3315789 C22.8046967,22.4105263 22.7232877,22.5315789 22.6113503,22.4526316 C22.4994129,22.3736842 22.5604697,22.2473684 22.6266145,22.1578947 C22.8708415,21.8368421 23.0692759,21.5052632 23.0285714,21.0684211 C23.0234834,20.9842105 23.0998043,20.8315789 23.0285714,20.8105263 C22.3569472,20.6105263 22.9064579,20.2842105 22.9675147,20.0473684 C23.1761252,19.2684211 23.0387476,18.4842105 23.074364,17.7052632 C23.0845401,17.3736842 23.0845401,17.0421053 23.3542074,16.6789474 Z" id="Shape" fill="#EBC491"></path>
                    <path d="M1.40939335,18.5631579 C1.47553816,18.8894737 1.36360078,19.2210526 1.60273973,19.6210526 C0.981996086,19.2631579 0.966731898,18.9789474 1.40939335,18.5631579 Z" id="Shape" fill="#EBC493"></path>
                    <path d="M16.9890411,15.5473684 C17.2536204,15.8421053 17.1722114,16.0263158 16.8567515,16.2421053 C16.0935421,16.7631579 15.192955,16.7894737 14.2262231,17.0947368 C14.6739726,17.5 15.0759295,17.8578947 15.4778865,18.2157895 C14.8317025,18.3 14.5315068,17.7210526 13.976908,17.6473684 C13.9056751,18.1631579 13.890411,18.6789474 13.6970646,19.2315789 C13.4019569,18.7421053 13.1882583,18.3210526 13.3765166,17.7789474 C13.4731898,17.5 13.4019569,17.2210526 13.1475538,17.0263158 C12.7812133,16.7473684 12.7303327,16.3789474 12.9236791,15.9894737 C13.0559687,15.7157895 12.9898239,15.5842105 12.7354207,15.4789474 C12.2266145,15.2578947 12.2164384,14.8578947 12.4250489,14.4157895 C12.5878669,14.0631579 12.7812133,13.7210526 12.9592955,13.3789474 C12.9796477,13.1736842 13.1373777,13.1105263 13.2900196,13.0578947 C14.3585127,12.6842105 15.4168297,12.2578947 16.5158513,11.9789474 C16.8007828,11.9052632 17.1264188,11.8 17.3197652,12.1842105 C17.5232877,12.5052632 17.3604697,12.6842105 17.1009785,12.8473684 C16.6939335,13.1 16.2563601,13.3052632 15.9001957,13.6421053 C15.7272016,13.8157895 15.4880626,13.7631579 15.2845401,13.8421053 C14.4857143,13.8894737 14.058317,14.4526316 13.6818004,15.0894737 C13.5342466,15.3421053 13.5851272,15.4736842 13.8547945,15.5842105 C14.216047,15.7315789 14.5925636,15.7315789 14.9639922,15.8 C15.5389432,15.8894737 16.1037182,15.9315789 16.6328767,15.5947368 C16.734638,15.5210526 16.8567515,15.4789474 16.9890411,15.5473684 Z" id="Shape" fill="#EBC390"></path>
                    <path d="M9.00078278,12.5315789 C9.33150685,12.7526316 9.35694716,13.1210526 9.36712329,13.4684211 C9.38747554,14.1421053 9.35694716,14.8157895 9.37729941,15.4894737 C9.3925636,16.0105263 9.0109589,16.3210526 8.77181996,16.7421053 C9.14833659,16.6578947 9.33659491,16.6789474 9.20939335,17.1578947 C8.9702544,18.0736842 8.8074364,19.0052632 8.60900196,19.9315789 L8.60900196,19.9315789 C8.4258317,19.7421053 8.52250489,19.5157895 8.53268102,19.3 C8.54794521,18.9368421 8.94481409,18.5684211 8.52759295,18.1894737 C8.47671233,18.1421053 8.59882583,17.9 8.6853229,17.6 C7.73894325,18.4 6.84344423,18.1631579 5.95812133,17.7631579 C5.64266145,17.6210526 5.28649706,17.7631579 4.90489237,17.5947368 C5.13385519,17.4052632 5.33737769,17.4736842 5.52054795,17.4578947 C6.03953033,17.4157895 6.55851272,17.4947368 7.08767123,17.3789474 C7.86105675,17.2105263 8.4665362,16.8421053 8.83287671,16.1 C9.02622309,15.5526316 9.02622309,15.5526316 8.2630137,15.0631579 C8.15616438,14.9947368 8.04931507,14.9210526 7.95264188,14.8368421 C7.49980431,14.5157895 7.01643836,14.3421053 6.46183953,14.5210526 C6.23796477,14.5842105 6.03444227,14.7578947 5.78003914,14.6368421 C5.49510763,14.3315789 5.16438356,14.8368421 4.80821918,14.5105263 C5.3221135,14.1421053 5.88180039,14.0157895 6.47201566,13.9684211 C6.48727984,13.9684211 6.51780822,13.9631579 6.52289628,13.9578947 C6.56360078,13.8421053 6.46183953,13.8684211 6.41604697,13.8421053 C6.51272016,13.5421053 6.7925636,13.5894737 7.00117417,13.5421053 C7.64735812,13.4 8.35968689,13.4263158 8.71585127,12.6736842 C8.76164384,12.5789474 8.90410959,12.5842105 9.00078278,12.5315789 Z" id="Shape" fill="#EBC391"></path>
                    <path d="M9.00078278,12.5315789 C8.48688845,13.7105263 7.34207436,13.5473684 6.4109589,13.8421053 C5.5816047,13.8631579 4.82348337,14.0842105 4.13659491,14.5947368 C3.91780822,14.7526316 3.55655577,15.0263158 3.36320939,14.7842105 C3.12915851,14.4947368 3.50567515,14.2105263 3.6888454,13.9947368 C4.36555773,13.2052632 5.281409,12.8473684 6.25322896,12.6631579 C7.15890411,12.4947368 8.07984344,12.4473684 9.00078278,12.5315789 Z" id="Shape" fill="#5F5F5C"></path>
                    <path d="M12.430137,12.3052632 C12.3334638,12.1526316 12.190998,12.1684211 12.0434442,12.2 C10.7459883,12.4473684 9.44853229,12.2105263 8.15616438,12.1157895 C7.50998043,12.0684211 6.90450098,12.1105263 6.29393346,12.2736842 C5.65792564,12.4421053 5.03209393,12.6736842 4.36046967,12.6894737 C5.29158513,12.3315789 6.21761252,11.9789474 7.07749511,11.4578947 C7.3776908,11.2789474 7.74911937,11.3421053 8.08493151,11.4421053 C8.9702544,11.7105263 9.88610568,11.9105263 10.7917808,11.9052632 C11.8093933,11.9 12.8422701,11.7894737 13.8344423,11.5263158 C14.546771,11.3368421 15.2540117,11.3473684 15.9714286,11.3789474 C16.2818004,11.3894737 16.0223092,11.5157895 16.007045,11.5947368 C15.9358121,11.7157895 15.8187867,11.7842105 15.6966732,11.8052632 C14.6739726,11.9631579 13.6716243,12.2210526 12.6438356,12.3421053 C12.5726027,12.3526316 12.5013699,12.3368421 12.430137,12.3052632 Z" id="Shape" fill="#EBC391"></path>
                    <path d="M12.430137,12.3052632 C13.3510763,11.9947368 14.3228963,11.9263158 15.2641879,11.7210526 C15.5084149,11.6684211 15.7577299,11.6368421 16.007045,11.6 C16.5412916,11.6157895 17.0806262,11.5894737 17.5894325,11.7894737 C17.7726027,11.8631579 18.0575342,11.9315789 18.0066536,12.1368421 C17.9354207,12.4473684 17.6911937,12.1315789 17.5232877,12.1736842 C17.4571429,12.1894737 17.3808219,12.1789474 17.309589,12.1842105 C17.1162427,12.0473684 16.897456,12.0210526 16.6837573,12.0842105 C15.4219178,12.4526316 14.1549902,12.8210526 12.9491194,13.3789474 C12.6336595,13.4789474 12.5268102,13.2789474 12.4861057,13.0157895 C12.4606654,12.7842105 12.4504892,12.5421053 12.430137,12.3052632 Z" id="Shape" fill="#5F5F5C"></path>
                    <path d="M16.8262231,11.1684211 C15.6610568,10.8842105 14.5569472,10.6263158 13.4630137,10.3368421 C12.7048924,10.1368421 12.023092,10.2631579 11.4379648,10.7894737 C10.8681018,11.2947368 10.2626223,11.4052632 9.58082192,11.1 C8.49706458,10.6157895 7.41330724,10.5578947 6.3295499,11.1052632 C6.19217221,11.1736842 6.02935421,11.2 5.87162427,11.2105263 C6.56868885,10.4947368 7.42857143,10.3789474 8.3444227,10.5368421 C8.68023483,10.5947368 9.02622309,10.6842105 9.32641879,10.8421053 C10.0590998,11.2315789 10.7154599,11.0789474 11.2802348,10.5578947 C11.8348337,10.0473684 12.4606654,9.91578947 13.1373777,10.0526316 C14.2465753,10.2842105 15.3506849,10.5736842 16.4497065,10.8526316 C16.5819961,10.8736842 16.739726,10.9157895 16.8262231,11.1684211 Z" id="Shape" fill="#EBC492"></path>
                    <path d="M16.490411,7.83684211 C16.1800391,7.98421053 15.9358121,7.81052632 15.6915851,7.72631579 C15.1776908,7.55263158 14.6739726,7.34210526 14.1600783,7.16842105 C13.7479452,7.03157895 13.3358121,6.91578947 12.8931507,7.09473684 C11.6872798,7.57894737 10.4559687,7.53684211 9.22465753,7.21578947 C8.47671233,7.02105263 7.76438356,7.09473684 7.05714286,7.39473684 C6.68062622,7.55263158 6.28375734,7.65789474 5.87671233,7.71578947 C6.77729941,7.13157895 7.72367906,6.71052632 8.83287671,6.93684211 C9.51976517,7.07894737 10.2066536,7.21578947 10.9138943,7.22631579 C11.4125245,7.23684211 11.8755382,7.16842105 12.3334638,6.94210526 C12.8219178,6.7 13.3409002,6.70526316 13.8649706,6.87368421 C14.5365949,7.08947368 15.2133072,7.28421053 15.8849315,7.5 C16.0986301,7.56842105 16.3428571,7.6 16.490411,7.83684211 Z" id="Shape" fill="#EBC491"></path>
                    <path d="M7.12837573,9.12631579 C7.85596869,8.86842105 8.57847358,8.68947368 9.29589041,8.82631579 C9.81996086,8.92631579 10.3033268,8.88421053 10.7866928,8.76315789 C11.1937378,8.66315789 11.5651663,8.67894737 11.9569472,8.78947368 C12.6183953,8.97368421 13.2594912,8.93684211 13.9209393,8.71052632 C14.6841487,8.44736842 15.4677104,8.47368421 16.3123288,8.76842105 C15.9663405,8.88947368 15.9612524,8.89473684 15.7679061,8.84210526 C15.2540117,8.69473684 14.7248532,8.7 14.2313112,8.87368421 C13.3103718,9.19473684 12.3894325,9.21052632 11.4634051,8.96842105 C11.2751468,8.92105263 11.1174168,8.93684211 10.9342466,8.97894737 C10.3898239,9.1 9.8555773,9.17894737 9.28062622,9.04210526 C8.70058708,8.90526316 8.10019569,9.1 7.51506849,9.18947368 C7.40313112,9.21052632 7.28610568,9.29473684 7.12837573,9.12631579 Z" id="Shape" fill="#EBC492"></path>
                    <path d="M16.9890411,15.5473684 C16.3479452,15.9947368 15.6661448,16.1578947 14.9181996,15.8842105 C14.9996086,15.7631579 15.1268102,15.7315789 15.2489237,15.6842105 C16.007045,15.7105263 16.6481409,15.4210526 17.2383562,14.9473684 C17.4876712,14.7473684 17.472407,14.6157895 17.2180039,14.4473684 C16.9279843,14.2526316 16.5514677,14.2526316 16.3021526,13.9842105 C16.2716243,13.9 16.2716243,13.8263158 16.332681,13.7578947 C16.8313112,13.9052632 17.3299413,14.0473684 17.7776908,14.3263158 C18.0829746,14.5157895 18.1338552,14.7263158 17.8285714,14.9578947 C17.548728,15.1578947 17.2688845,15.3526316 16.9890411,15.5473684 Z" id="Shape" fill="#CBAF8C"></path>
                    <path d="M5.78003914,14.6368421 C5.99882583,14.5631579 6.21761252,14.4894737 6.43639922,14.4157895 C6.72641879,14.3052632 7.00117417,14.3736842 7.27592955,14.4842105 C7.35733855,14.5631579 7.32172211,14.6315789 7.2555773,14.6947368 C7.08767123,14.7947368 6.90450098,14.7315789 6.72641879,14.7368421 C6.11585127,14.7578947 5.61722114,15.0368421 5.21017613,15.5 C4.98121331,15.7578947 4.9964775,15.9578947 5.33737769,16.0842105 C5.62739726,16.1894737 5.91741683,16.2894737 6.22270059,16.3526316 C6.37534247,16.4052632 6.54324853,16.4157895 6.66536204,16.5421053 C6.67553816,16.6421053 6.66027397,16.7105263 6.53816047,16.6736842 C5.89197652,16.6894737 5.30176125,16.4789474 4.72681018,16.1842105 C4.47240705,16.0526316 4.43679061,15.9210526 4.60978474,15.6631579 C4.91506849,15.2157895 5.29158513,14.8631579 5.78003914,14.6368421 Z" id="Shape" fill="#CAAF8D"></path>
                    <path d="M6.53816047,16.6736842 C6.57886497,16.6421053 6.61448141,16.6105263 6.65518591,16.5789474 C6.80273973,16.3578947 7.05205479,16.4421053 7.24031311,16.3578947 C7.5964775,16.2684211 7.92720157,16.1157895 8.25283757,15.9631579 C8.67514677,15.7631579 8.68023483,15.7 8.33424658,15.3578947 C8.25792564,15.2789474 8.17142857,15.2052632 8.1409002,15.0947368 C8.15107632,15.0052632 8.17142857,14.9368421 8.28336595,14.9842105 C8.50215264,14.9894737 8.6446184,15.1578947 8.80234834,15.2684211 C9.24500978,15.5894737 9.23992172,15.7368421 8.82778865,16.1052632 C8.3037182,16.3052632 7.77964775,16.5052632 7.2555773,16.7052632 C7.01643836,16.7947368 6.77221135,16.8631579 6.53816047,16.6736842 Z" id="Shape" fill="#CCB08E"></path>
                    <path d="M8.60900196,19.9368421 C8.67514677,19.9368421 8.85831703,19.8736842 8.78199609,19.9789474 C8.33933464,20.5842105 8.35459883,21.2105263 8.66497065,21.8789474 C7.76947162,21.0368421 7.76947162,20.6421053 8.60900196,19.9368421 C8.61409002,19.9315789 8.60900196,19.9368421 8.60900196,19.9368421 Z" id="Shape" fill="#EBC391"></path>
                    <path d="M7.98825832,22.1473684 C7.99334638,22.5263158 7.718591,22.7368421 7.53542074,22.9842105 C7.34716243,23.2368421 7.24031311,23.5315789 6.98082192,23.8684211 C7.0927593,23.0631579 7.57612524,22.6263158 7.98825832,22.1473684 Z" id="Shape" fill="#ECC695"></path>
                    <path d="M16.332681,13.7712206 C16.332681,13.8564349 16.332681,13.9350943 16.332681,14.0203086 C16.088454,14.2366219 15.8747554,14.098968 15.6661448,13.9154295 C15.6661448,13.6728964 15.762818,13.6663414 15.9001957,13.7581107 C16.0477495,13.7581107 16.1902153,13.7646656 16.332681,13.7712206 Z" id="Shape" fill="#C9AC89"></path>
                    <path d="M15.9001957,13.8069989 C15.8289628,13.8562669 15.7526419,13.905535 15.681409,13.954803 C15.6508806,14.0204937 15.6101761,14.0533391 15.5592955,14.0533391 C15.437182,14.0204937 15.3201566,13.979437 15.2438356,13.8069989 C15.437182,13.5031793 15.6763209,13.6838288 15.8951076,13.6427721 C15.8951076,13.7002515 15.9001957,13.7577309 15.9001957,13.8069989 Z" id="Shape" fill="#CCB191"></path>
                    <path d="M8.17142857,26.3315789 C8.73620352,25.7105263 9.38747554,25.4368421 10.1964775,25.4315789 C11.7432485,25.4157895 13.2849315,25.3315789 14.8113503,25.0210526 C15.0555773,24.9736842 15.3150685,25.0157895 15.5745597,25.0736842 C13.1475538,25.7526316 10.6187867,25.8105263 8.17142857,26.3315789 Z" id="Shape" fill="#EBC491"></path>
                    <path d="M15.2438356,13.7421053 C15.3608611,13.7473684 15.4880626,13.7210526 15.5745597,13.8421053 C15.4473581,14.0315789 15.2336595,14.0473684 15.0454012,14.0789474 C14.4908023,14.1842105 14.2669276,14.6421053 14.0277886,15.0736842 C13.8802348,15.3421053 14.1142857,15.4105263 14.2872798,15.5157895 C14.5874755,15.7 14.9792564,15.5105263 15.2489237,15.7894737 C15.1624266,15.9 15.035225,15.8736842 14.9181996,15.8842105 C14.4704501,15.9368421 14.058317,15.8052632 13.646184,15.6526316 C13.4375734,15.5736842 13.3714286,15.4473684 13.4477495,15.2157895 C13.6970646,14.4315789 14.4450098,13.8105263 15.2438356,13.7421053 Z" id="Shape" fill="#C9AC89"></path>
                    <path d="M7.30136986,14.5368421 C7.01135029,14.5157895 6.73659491,14.3684211 6.43639922,14.4157895 C7.05714286,14.1473684 7.57103718,14.3894737 8.06457926,14.7631579 C7.74403131,14.9421053 7.49980431,14.8210526 7.30136986,14.5368421 Z" id="Shape" fill="#EACAA0"></path>
                    <path d="M7.30136986,14.5368421 C7.55068493,14.6315789 7.78982387,14.7578947 8.06457926,14.7631579 C8.13581213,14.8368421 8.21213307,14.9105263 8.28336595,14.9789474 C8.24774951,15.0105263 8.21213307,15.0421053 8.17651663,15.0789474 C7.77964775,15.1 7.41330724,15.0473684 7.18434442,14.6526316 C7.22504892,14.6157895 7.26575342,14.5736842 7.30136986,14.5368421 Z" id="Shape" fill="#CDB393"></path>
                    <path d="M15.2438356,15.7947368 C14.8215264,15.7421053 14.3992172,15.7631579 13.9972603,15.5578947 C13.7174168,15.4157895 13.7225049,15.2894737 13.8497065,15.0473684 C14.2262231,14.3315789 14.7350294,13.8421053 15.5694716,13.8421053 C15.6050881,13.8421053 15.6457926,13.8421053 15.681409,13.8421053 C15.9001957,13.8789474 16.1138943,13.9210526 16.332681,13.9578947 C16.7091977,14.0842105 17.0857143,14.1947368 17.4266145,14.4105263 C17.7217221,14.6 17.7675147,14.7578947 17.4520548,14.9736842 C16.7804305,15.4315789 16.1342466,15.9578947 15.2438356,15.7947368 Z" id="Shape" fill="#FDFDFD"></path>
                    <path d="M7.18434442,14.6526316 C7.51506849,14.7947368 7.84579256,14.9368421 8.17651663,15.0789474 C8.39021526,15.2894737 8.83287671,15.3736842 8.79217221,15.7052632 C8.75146771,16.0578947 8.3037182,16.0684211 8.02387476,16.2052632 C7.80508806,16.3157895 7.58121331,16.4578947 7.32172211,16.4578947 C7.22504892,16.5157895 7.18434442,16.4578947 7.15890411,16.3684211 C7.16399217,16.2684211 7.21996086,16.1947368 7.27084149,16.1157895 C7.56594912,15.6157895 7.54559687,15.5368421 7.04187867,15.1842105 C6.72641879,14.9421053 6.44657534,14.9736842 6.18199609,15.2736842 C5.9072407,15.5789474 6.00900196,15.8473684 6.23796477,16.1105263 C6.29902153,16.1789474 6.34990215,16.2578947 6.36516634,16.3526316 C6.34481409,16.4421053 6.30919765,16.5052632 6.2074364,16.4526316 C6.03444227,16.4210526 5.85127202,16.4 5.68336595,16.3473684 C5.38317025,16.2473684 4.93542074,16.2368421 4.86418787,15.9105263 C4.78277886,15.5526316 5.18473581,15.3210526 5.43405088,15.1 C5.93268102,14.6578947 6.52798434,14.4947368 7.18434442,14.6526316 Z" id="Shape" fill="#FDFDFD"></path>
                    <path d="M6.20234834,16.5155948 C6.24305284,16.4734744 6.28375734,16.431354 6.32446184,16.3892336 C6.35499022,16.326053 6.40078278,16.2979727 6.45675147,16.2909526 C6.70097847,16.3962537 6.97064579,16.1084309 7.19960861,16.3962537 C7.24031311,16.4383741 7.28610568,16.4875146 7.32681018,16.529635 C7.12328767,16.7542772 6.87906067,16.634936 6.65518591,16.6910966 C6.50254403,16.627916 6.3295499,16.7051367 6.20234834,16.5155948 Z" id="Shape" fill="#F7F6F4"></path>
                    <path d="M15.7933464,14.1789474 C16.4344423,14.4315789 16.6684932,14.7526316 16.4853229,15.1421053 C16.2258317,15.7052632 15.6915851,15.8105263 15.0250489,15.4315789 C15.3150685,15.0421053 15.8238748,14.7842105 15.7933464,14.1789474 Z" id="Shape" fill="#63534B"></path>
                    <path d="M15.7933464,14.1789474 C15.9561644,14.7105263 15.7017613,15.1263158 15.0250489,15.4315789 C14.790998,15.1947368 14.6587084,14.9315789 14.8876712,14.6210526 C15.111546,14.3210526 15.3455969,14.0105263 15.7933464,14.1789474 Z" id="Shape" fill="#463A35"></path>
                    <path d="M6.42622309,16.3421053 C6.39060665,16.3421053 6.36007828,16.3473684 6.32446184,16.3631579 C5.72407045,15.7631579 5.7037182,15.5526316 6.1667319,15.0894737 C6.49236791,14.7631579 6.91976517,14.7631579 7.2148728,15.1105263 C7.39804305,15.6842105 7.00626223,16.1736842 6.42622309,16.3421053 Z" id="Shape" fill="#453934"></path>
                    <path d="M6.32446184,16.3578947 C6.7518591,16.0684211 7.0927593,15.5263158 7.08767123,14.9842105 C7.73385519,15.3684211 7.96790607,16.0315789 7.19452055,16.3578947 C6.96046967,16.4631579 6.57886497,16.5842105 6.32446184,16.3578947 Z" id="Shape" fill="#64544C"></path>
                </g>
                <g id="magician" transform="translate(0.000000, 9.000000)">
                    <path d="M28.5058274,37.0747088 C24.0362997,37.9229455 19.5668537,38.1879829 15.0983053,37.8698212 C13.0670802,37.7257102 11.0358551,37.4606728 9.00454837,37.0747088 C10.1356818,32.6389591 10.3722731,28.2041268 9.71350624,23.7683771 C11.4731288,21.4798645 15.7305485,21.4330784 17.6141387,21.3083157 C21.7570577,21.0346049 23.6519918,23.0390653 27.7958902,23.7683771 C27.1381026,28.2041268 27.374694,32.6388757 28.5058274,37.0747088 Z" id="Shape" fill="#666666"></path>
                    <path d="M28.6601911,20.0725703 L28.644915,20.3206278 C28.5296873,20.770206 28.4230011,21.2208702 28.3267453,21.6704484 C28.170535,22.3971591 27.8926143,23.1239535 27.7849425,23.8506642 C23.614735,23.1200266 19.5756462,22.773129 15.4064242,23.0473374 C13.5108753,23.172327 11.6288323,23.5183056 9.73328343,23.8506642 C9.62561165,23.1267941 9.49420445,22.402005 9.33889757,21.6772159 C9.24173837,21.2247135 9.13505214,20.7731302 9.01982446,20.3206278 L9.00454837,20.0803404 C9.83709512,20.0260334 10.6705453,19.9795801 11.5039955,19.9398107 C12.6975014,19.882663 13.8919928,19.8390503 15.0864843,19.8099752 C18.8185309,19.717904 22.5524665,19.7615167 26.2816386,19.9398107 C27.0751739,19.9775749 27.8676414,20.0221901 28.6601911,20.0725703 Z" id="Shape" fill="#F95428"></path>
                    <g id="Group" transform="translate(21.416923, 10.008980) rotate(-102.000000) translate(-21.416923, -10.008980) translate(15.916923, -9.991020)" fill="#FACE17">
                        <polygon id="Shape" points="3.61501812 36.2519526 4.17103612 37.2873171 5.1876239 37.8535526 4.17103612 38.4198404 3.61501812 39.455205 3.05905157 38.4198404 2.04241234 37.8535526 3.05905157 37.2873171"></polygon>
                        <polygon id="Shape" points="7.07147435 4.32324797 7.62744089 5.35861251 8.64408013 5.92490037 7.62744089 6.49113583 7.07147435 7.52655278 6.51545635 6.49113583 5.49892002 5.92490037 6.51545635 5.35861251"></polygon>
                        <polygon id="Shape-Copy" transform="translate(2.437515, 2.573154) rotate(-32.000000) translate(-2.437515, -2.573154) " points="2.43749655 1.39654174 2.84592305 2.15714563 3.59277087 2.57315442 2.84592305 2.98912471 2.43749655 3.7497671 2.02903225 2.98912471 1.28226003 2.57315442 2.02903225 2.15714563"></polygon>
                        <polygon id="Shape" points="9.60127323 0 9.93402988 0.619688502 10.5424286 0.958538891 9.93402988 1.29744169 9.60127323 1.91707778 9.26856803 1.29744169 8.66011783 0.958538891 9.26856803 0.619688502"></polygon>
                    </g>
                    <path d="M28.6601911,20.059561 L28.644915,20.2972558 C28.5296873,20.7280525 28.4230011,21.1598899 28.3267453,21.5906867 C27.6456454,21.5498566 26.963642,21.5145507 26.2816386,21.4830075 C21.3579751,21.2574016 16.4267556,21.2574016 11.5039955,21.4830075 C10.781995,21.5164721 10.0599125,21.5535394 9.33889757,21.5972515 C9.24173837,21.1636527 9.13505214,20.7309346 9.01982446,20.2973358 L9.00454837,20.0670865 C9.83709512,20.0150483 10.6705453,19.9705356 11.5039955,19.9324275 C12.6975014,19.8776673 13.8919928,19.8358766 15.0864843,19.8080161 C18.8185309,19.7197912 22.5524665,19.7615819 26.2816386,19.9324275 C27.0751739,19.9685341 27.8676414,20.0112855 28.6601911,20.059561 Z" id="Shape" fill="#E54728"></path>
                    <path d="M15.1816507,37.7903802 C13.1226442,37.6463193 11.0636376,37.3813739 9.00454837,36.9955441 C10.1511525,32.561336 10.3909797,28.1280449 9.72320279,23.6938367 C11.6325551,23.3621965 13.437106,23.1369045 15.3464584,23.0121851 C15.6784441,26.9716925 16.1181268,33.5544225 15.1816507,37.7903802 Z" id="Shape" fill="#4D4D4D"></path>
                    <path d="M15.3334595,23.0705703 C13.4637233,23.1937684 11.593096,23.4182592 9.72335985,23.7458543 C9.5514543,22.5863422 9.31652211,21.4259242 9.01961643,20.266412 L9.00454837,20.0295685 C9.82575788,19.9761222 10.6478585,19.9302523 11.4699592,19.8910529 C12.6472125,19.8347243 13.8254379,19.7917367 15.0036633,19.7630783 C15.0036633,19.762996 15.1680348,21.0810352 15.3334595,23.0705703 Z" id="Shape" fill="#E54728"></path>
                    <path d="M0.711582507,21.492193 C0.355074697,21.492193 0.0472150932,21.2213727 0.00487313641,20.8536351 C-0.0407447938,20.4574118 0.239023338,20.0985604 0.629765071,20.0523855 C3.39902732,19.724428 6.20809265,19.4688055 8.97915668,19.2928262 C9.78987821,19.2401736 10.6326224,19.1929192 11.4828194,19.1525577 C16.3935855,18.9185278 21.3740479,18.9184447 26.2857149,19.1525577 C27.0550772,19.189099 27.8568717,19.2336959 28.6685761,19.2851028 C31.4904177,19.462826 34.3400232,19.72094 37.1378683,20.0523855 C37.52861,20.0986434 37.8084601,20.4574949 37.7627602,20.8537181 C37.7171423,21.2499413 37.3633372,21.5342985 36.9725954,21.4873762 C34.2003029,21.1589204 31.3766595,20.9031318 28.5801248,20.7270695 C27.7754638,20.6759948 26.9812859,20.6318962 26.2191307,20.5956872 C21.3517713,20.3636504 16.4162716,20.3636504 11.5497311,20.5956872 C10.7074784,20.6356334 9.87300604,20.6823896 9.06932785,20.73471 C6.32258792,20.9092774 3.53915708,21.1624084 0.79511983,21.4873762 C0.767028358,21.4905321 0.739100684,21.492193 0.711582507,21.492193 Z" id="Shape" fill="#4D4D4D"></path>
                </g>
                <g id="magic" transform="translate(36.425547, 24.435279) rotate(-8.000000) translate(-36.425547, -24.435279) translate(28.925547, 16.935279)">
                    <path d="M4.51218905,3.00797437 L2.67835235,4.49568818 L12.4584244,14.8520204 C12.6583654,15.0637213 13.1864839,14.8477379 13.6380306,14.3696567 C14.0895774,13.8915754 14.2935173,13.3323461 14.0935763,13.120621 L4.51218905,3.00797437 Z" id="Shape" fill="#515262"></path>
                    <path d="M0.430968976,2.15632533 L3.3472815,5.20949286 C3.5476177,5.41923031 4.07684049,5.20522571 4.52933147,4.73152446 C4.98182246,4.25782322 5.18621163,3.7037414 4.98587543,3.49400394 L2.06958581,0.440836408 L0.430968976,2.15632533 Z" id="Shape" fill="#D9D9D9"></path>
                    <path d="M13.1334639,14.1658488 L1.22228392,1.8357643 L0.483613925,2.20363721 L12.4834934,14.8519979 C12.6840803,15.0637573 13.213905,14.8477143 13.6669107,14.3695009 C13.78238,14.2476001 13.881619,14.1204476 13.9621976,13.9951102 C13.6151707,14.2437763 13.2829299,14.3236399 13.1334639,14.1658488 Z" id="Shape" fill="#000000" opacity="0.1"></path>
                    <ellipse id="Oval" fill="#E6E6E6" transform="translate(1.262670, 1.304929) rotate(-135.000000) translate(-1.262670, -1.304929) " cx="1.26266961" cy="1.30492928" rx="1" ry="1.22332108"></ellipse>
                </g>
            </g>
        </g>
    </g>
</svg>
