<?xml version="1.0" encoding="UTF-8"?>
<svg width="47px" height="47px" viewBox="0 0 47 47" version="1.1" xmlns="http://www.w3.org/2000/svg" xmlns:xlink="http://www.w3.org/1999/xlink">
    <title>Artboard 3</title>
    <desc>Created with Sketch By Sagi H</desc>
    <defs></defs>
    <g id="Page-1" stroke="none" stroke-width="1" fill="none" fill-rule="evenodd">
        <g id="Artboard-3" fill-rule="nonzero">
            <g id="Group-2" transform="translate(2.500000, 0.000000)">
                <g id="victory" transform="translate(9.574468, 0.000000)">
                    <path d="M8.89057751,0.226763718 C7.39501187,0.670212766 6.02123496,1.39081747 4.95923721,2.61534155 C3.80468002,3.94568869 2.69883832,5.32642777 1.8170879,6.86842105 C0.984052962,8.32978723 0.521255777,9.93225084 0.662530707,11.6304591 C0.764833243,12.9003359 1.05225465,14.1550952 1.25685972,15.4199328 C1.17891494,15.6013438 1.15942874,15.787794 1.19352958,15.9843225 C1.30557522,16.6595745 1.39813465,17.3398656 1.60273973,17.9949608 C1.77324395,18.2217245 1.92426198,18.4787234 2.26527043,18.2821948 C2.31885748,18.1864502 2.33834367,18.0806271 2.34321522,17.9697648 C2.43090311,16.4680851 2.58679269,14.9714446 2.77191156,13.474804 C3.03010368,11.4087346 3.29803889,9.34770437 3.63417579,7.29675252 C3.77057917,6.46528555 4.17978932,6.05207167 4.93000791,6.00167973 C7.02477412,5.85050392 9.09518258,5.49272116 11.1802057,5.27099664 C12.9583212,5.07950728 14.7364367,4.96360582 16.5242953,5.02407615 C17.3427156,5.05431131 17.6106508,5.32138858 17.8201274,6.13773796 C18.0539618,7.0699888 17.9662739,7.99216125 17.824999,8.91433371 C17.7032102,9.70044793 17.8639714,10.4059351 18.2439522,11.081187 C18.6141899,11.731243 19.013657,12.3611422 19.3838947,13.0111982 C20.0025815,14.0996641 20.5335804,15.2183651 20.6651122,16.5033595 C20.7089562,16.9468085 20.6163967,17.4053751 20.7771578,17.8387458 C21.2009826,18.0604703 21.3861015,17.6774916 21.6442936,17.4708847 C21.9658159,16.362262 22.2970812,15.2536394 22.516301,14.1147816 C22.5455302,13.7217245 22.6137319,13.3337066 22.5991173,12.9406495 C22.5455302,11.4843225 22.2045218,10.0985442 21.7027522,8.72788354 C20.7040846,5.98656215 19.3303077,3.58286674 16.7630012,2.07110862 C15.4379398,1.29003359 14.1469792,0.473684211 12.6173127,0.176371781 C12.6124412,0.176371781 10.2935837,-0.186450168 8.89057751,0.226763718 Z" id="Shape" fill="#CBCBCB"></path>
                    <path d="M3.41008452,28.0531915 C3.60007495,29.1466965 3.83390931,30.2301232 4.06287213,31.3135498 C4.42823833,33.0268757 4.76924678,34.7452408 5.31486031,36.4081747 C5.4025482,36.5795073 5.46100679,36.7659574 5.53895158,36.9423292 C5.53895158,36.9423292 6.65453637,40.3135498 13.1580547,38.912654 C14.7023358,38.5800672 16.0712412,37.6830907 17.4888621,36.9675252 C18.8723821,36.2670773 19.8856643,35.2239642 20.2851314,33.6315789 C20.3776908,33.268757 20.4556356,32.9008959 20.5530666,32.5431131 C20.7284424,31.4697648 20.8258733,30.3863382 20.7917725,29.2978723 C20.7869009,29.081187 20.7820294,28.8695409 20.8502311,28.6629339 C20.8892035,27.987682 20.8599742,27.468645 20.8356164,26.6371781 C20.8161302,25.2614782 20.9768914,23.9008959 21.0548362,22.5302352 C21.1912395,22.3740202 21.2058542,22.1724524 21.2302119,21.980963 C21.3617438,20.8471445 21.4055877,19.7032475 21.5127618,18.5694289 C21.5468626,18.2116461 21.7660824,17.8488242 21.5663488,17.4759239 C21.3276429,17.6170213 21.0840655,17.7631579 20.8453595,17.9042553 C20.6115252,18.1209406 20.6261398,18.4132139 20.6066536,18.7004479 C20.4848649,20.4641657 19.4618395,21.7340426 18.3657409,22.9384099 C17.9614023,23.3818589 17.3914311,23.4524076 16.8165882,23.2306831 C16.6363409,23.1601344 16.4609651,23.0895857 16.2758463,23.0442329 C16.095599,23.0089586 15.9835533,22.8628219 15.8422784,22.7620381 C14.7120789,21.9557671 13.4016322,21.5324748 12.1934879,20.887458 C11.8914519,20.7262038 11.6332598,20.8521837 11.3945539,21.0739082 C10.9853437,21.4518477 10.5469043,21.5274356 10.0841071,21.1646137 C9.95257526,21.0839866 9.82104343,20.9932811 9.67489695,20.9428891 C9.3241454,20.8370661 9.03185244,20.9580067 8.74930258,21.1646137 C8.30599159,21.4871221 7.90652455,21.8549832 7.54115835,22.2631579 C7.10271891,22.7519597 6.58633468,23.1450168 6.0650789,23.5380739 C5.76791439,23.7648376 5.46587834,23.7849944 5.14435608,23.5884658 C4.66694425,23.2911534 4.21876171,22.9484882 3.88749636,22.4798432 C3.07394762,21.3208287 2.40654536,20.0963046 2.31885748,18.6198208 C2.31398593,18.5139978 2.28962818,18.4081747 2.19219719,18.337626 C2.02169297,18.2318029 1.85606029,18.1209406 1.68555606,18.0151176 C1.52966649,18.1864502 1.59299663,18.3829787 1.62709747,18.5744681 C1.89016114,20.1265398 2.17758255,21.668533 2.46013241,23.2155655 C2.49423325,23.4120941 2.56730649,23.593505 2.71345297,23.7346025" id="Shape" fill="#BCB9B4"></path>
                    <path d="M21.0597077,22.5302352 C21.2107257,20.8421053 21.1961111,19.1338186 21.5712204,17.4708847 C21.7612108,16.4227324 22.0924762,15.4098544 22.3506683,14.3818589 C22.375026,14.2861142 22.4627139,14.2054871 22.516301,14.1198208 C22.7062914,14.0391937 22.8962818,13.9535274 23.0911438,13.8729003 C23.9046925,13.5352744 23.8900779,13.5957447 24.3236458,14.3969765 C25.18591,15.9742441 24.9715618,17.4708847 24.2213432,18.987682 C23.9387934,19.5621501 23.7000874,20.1567749 23.4759962,20.756439 C23.2031894,21.4770437 22.6380897,21.9356103 22.1168339,22.4244121 C21.824541,22.6965286 21.4104593,22.4848824 21.0597077,22.5302352 Z" id="Shape" fill="#EFD0A8"></path>
                    <path d="M1.69042761,18.0100784 C2.03143607,19.9148936 2.37244452,21.824748 2.71832452,23.7295633 C2.08989466,23.6690929 1.37377691,22.9888018 1.38352001,22.3941769 C1.39326311,21.512318 1.09122705,20.7463606 0.657659158,20.0257559 C-0.0584585918,18.8365062 -0.0828163384,17.5666293 0.194861973,16.2513998 C0.272806762,15.893617 0.467668735,15.6215006 0.872007328,15.6416573 C1.0571262,15.6517357 1.14968564,15.5307951 1.26173127,15.424972 C1.4030062,16.2866741 1.54915268,17.1483763 1.69042761,18.0100784 Z" id="Shape" fill="#EFD0A8"></path>
                    <path d="M9.70412624,21.0285554 C8.99775159,20.912654 8.5836699,21.4316909 8.15010201,21.8398656 C7.52167215,22.4294513 6.93708623,23.0593505 6.25019778,23.5834267 C5.84098763,23.8958567 5.48049298,23.981523 5.0274389,23.6791713 C4.47208228,23.3012318 3.9605696,22.8779395 3.60007495,22.2984323 C2.84011325,21.0890258 2.14835325,19.8493841 2.20194029,18.3325868 C2.25065579,16.5134378 2.4893617,14.7144457 2.70858142,12.9104143 C2.93267269,11.0711086 3.20547945,9.2418813 3.45880002,7.41265398 C3.60981805,6.31410974 4.10184453,5.89081747 5.18332848,5.83034714 C6.23071158,5.76987682 7.27809468,5.63885778 8.31573469,5.49776036 C9.49464962,5.33650616 10.6735646,5.20044793 11.8524795,5.06942889 C13.3870175,4.9031355 14.9215556,4.85778275 16.4560936,4.87290034 C17.4547612,4.88297872 17.6983387,5.10974244 17.9711454,6.10246361 C18.2293376,7.04479283 18.1416497,7.98208287 17.9906316,8.91433371 C17.8688429,9.66517357 17.9906316,10.3303471 18.3559978,10.9703247 C18.9357122,11.9832027 19.5641421,12.9759239 20.0951409,14.019037 C20.7138277,15.2284434 20.9281759,16.5487122 20.8453595,17.9143337 C20.8453595,19.8393057 19.9148936,21.3409854 18.7993088,22.7620381 C18.278053,23.4272116 17.4645043,23.6539754 16.6558271,23.331467 C16.495066,23.2659574 16.344048,23.1702128 16.1638006,23.1802912 C15.7107466,22.2681971 15.1310322,21.4468085 14.4051713,20.7463606 C13.9862181,20.3432251 13.5867511,19.9199328 13.5185494,19.587346 C13.7475122,20.3432251 13.7134113,20.4792833 13.0801099,20.8269877 C13.0849815,20.8521837 13.1093392,20.8471445 13.1483116,20.8219485 C13.9862181,20.3129899 14.030062,20.3129899 14.668235,21.1041433 C14.9897573,21.5022396 15.3210226,21.8902576 15.6181871,22.3085106 C15.7399759,22.474804 15.9153516,22.6209406 15.8471499,22.8729003 C14.7266936,22.1976484 13.5088063,21.7239642 12.3542491,21.1142217 C12.0034975,20.9277716 11.7550485,20.8924972 11.4383978,21.2150056 C10.9463713,21.7088466 10.615106,21.6886898 10.0110339,21.2553191 C10.3081984,21.0335946 10.6881792,21.2301232 11.0048299,21.0537514 C11.1217471,20.9882419 11.3214806,20.9731243 11.3458384,20.8471445 C11.4140401,20.4490482 11.7258192,20.393617 12.0132406,20.2676372 C11.7209477,20.0761478 11.5650581,20.237402 11.4335263,20.4893617 C11.0291877,21.2855543 10.3276846,21.3762598 9.72361244,20.7211646 C9.61643836,20.6052632 9.53362202,20.4641657 9.3046592,20.5095185 C9.43619103,20.6909295 9.78207103,20.706047 9.70412624,21.0285554 Z" id="Shape" fill="#EFD0A8"></path>
                    <path d="M10.4299871,25.9720045 C10.2935837,26.5011198 10.1376941,27.025196 10.0256485,27.5593505 C9.96231836,27.8566629 9.83078653,27.9574468 9.55797976,27.8868981 C8.69084399,27.6651736 7.8919099,27.3023516 7.25860849,26.6220605 C6.57172003,25.881299 6.58146313,25.049832 7.38526877,24.4703247 C8.78827497,23.4524076 10.3325561,22.993841 12.0814423,23.2357223 C13.1190823,23.3768197 14.171337,23.43729 15.1894908,23.7144457 C15.306408,23.7446809 15.4233251,23.774916 15.5402423,23.8152296 C16.4463505,24.1226204 16.548653,24.4098544 16.1735437,25.3269877 C15.9153516,25.9568869 15.6181871,26.556551 15.2479494,27.1209406 C14.8484823,27.7256439 14.3320981,27.7861142 13.8157139,27.2721165 C13.338302,26.7984323 12.9729358,26.2340426 12.6124412,25.6646137 C12.5783403,25.6041433 12.7585877,25.4680851 12.6319274,25.5033595 C12.1301578,25.6444569 11.6478744,25.4932811 11.1558479,25.4680851 C10.7856102,25.4529675 10.5225465,25.5739082 10.4299871,25.9720045 Z" id="Shape" fill="#EFD0A8"></path>
                    <path d="M15.8471499,22.8577828 C15.3648666,22.1170213 14.7948953,21.4518477 14.224924,20.7866741 C14.0057043,20.5296753 13.8303285,20.4641657 13.5380356,20.6909295 C13.3431736,20.8421053 13.1093392,20.9882419 12.7634592,20.9781635 C13.8108423,20.5548712 13.5282925,19.7989922 13.1629263,19.0229563 C13.4600908,19.0884658 13.5916226,19.2194849 13.6159803,19.3605823 C13.7426406,20.055991 14.2979973,20.4137738 14.7169505,20.8723404 C15.2138485,21.4165733 15.6961319,21.9759239 16.0127826,22.6612542 C16.0858559,22.8225084 16.1735437,22.9787234 16.1589291,23.1651736 C16.0127826,23.1097424 15.9202232,22.993841 15.8471499,22.8577828 Z" id="Shape" fill="#EBC491"></path>
                    <path d="M9.70412624,21.0285554 C9.62130991,20.862262 9.51413582,20.731243 9.31927385,20.7010078 C9.19261357,20.6808511 8.99288004,20.6909295 9.06108173,20.4792833 C9.12441187,20.2978723 9.30953075,20.2323628 9.49952117,20.287794 C9.69925469,20.3482643 9.77719948,20.5447928 9.87950202,20.7110862 C10.0792355,21.0285554 10.3812716,21.0739082 10.7027939,21.0083987 C10.9902153,20.9479283 11.2825082,20.8824188 11.2922513,20.4641657 C11.2971229,20.2978723 11.4189116,20.1315789 11.5650581,20.0257559 C11.7745347,19.8745801 11.9596536,19.9804031 12.1447725,20.0912654 C12.2373319,20.1466965 12.3152767,20.2424412 12.2714327,20.3583427 C12.1934879,20.5599104 12.0034975,20.4742441 11.8622226,20.4893617 C11.6576175,20.5095185 11.4822417,20.5195969 11.5017279,20.8169093 C11.5163426,21.0587906 11.2873798,21.068869 11.1363617,21.1192609 C10.7709955,21.2402016 10.3910147,21.2653975 10.0061623,21.2452408 C9.90873132,21.1696529 9.80642878,21.0991041 9.70412624,21.0285554 Z" id="Shape" fill="#EBC492"></path>
                    <path d="M10.4299871,25.9720045 C10.225382,25.6444569 10.3958862,25.4680851 10.6833077,25.3773796 C10.8294541,25.3320269 10.9902153,25.3269877 11.1412333,25.3370661 C11.7355623,25.3723404 12.3250198,25.5537514 12.9631927,25.2413214 C12.9242203,25.5789474 12.7829454,25.6394177 12.6075696,25.6646137 C11.8914519,25.8359462 11.1704626,25.9720045 10.4299871,25.9720045 Z" id="Shape" fill="#EAC492"></path>
                    <path d="M22.3604114,15.9692049 C22.4529708,16.387458 22.3457967,16.7402016 22.5016863,17.0576708 C22.5455302,17.1483763 22.5455302,17.2844345 22.6770621,17.2844345 C22.7793646,17.2894737 22.8037224,17.1786114 22.8475663,17.1030235 C22.9449973,16.9165733 23.0180705,16.7099664 23.2860057,16.6192609 C23.3054919,16.9165733 23.1885748,17.193729 23.3201066,17.4557671 C23.3736936,17.5615901 23.3103635,17.6674132 23.164217,17.6321389 C22.6527043,17.5212766 22.4237415,17.9395297 22.375026,18.2771557 C22.3068243,18.7206047 21.8099263,19.325308 22.6039888,19.6427772 C22.6721905,19.6730123 22.7160345,19.7385218 22.667319,19.8141097 C22.3311821,20.2978723 22.3165674,20.9428891 21.9024857,21.381299 C21.834284,21.4568869 21.7563393,21.5727884 21.6491652,21.4972004 C21.5419911,21.4216125 21.6004497,21.3006719 21.6637798,21.2150056 C21.8976142,20.9076148 22.0876046,20.5901456 22.0486322,20.1718925 C22.0437607,20.0912654 22.1168339,19.9451288 22.0486322,19.924972 C21.4055877,19.7334826 21.931715,19.4210526 21.9901736,19.1942889 C22.1899071,18.4484882 22.0583753,17.6976484 22.0924762,16.9518477 C22.1022193,16.6343785 22.1022193,16.3169093 22.3604114,15.9692049 Z" id="Shape" fill="#EBC491"></path>
                    <path d="M1.34941916,17.7732363 C1.4127493,18.0856663 1.30557522,18.4031355 1.53453804,18.7861142 C0.940209019,18.443449 0.925594371,18.1713326 1.34941916,17.7732363 Z" id="Shape" fill="#EBC493"></path>
                    <path d="M16.2661032,14.8857783 C16.5194237,15.1679731 16.441479,15.3443449 16.1394429,15.5509518 C15.4087105,16.049832 14.5464463,16.075028 13.6208519,16.3673012 C14.0495482,16.7553191 14.4344006,17.0979843 14.819253,17.4406495 C14.2005663,17.5212766 13.9131449,16.9669653 13.382146,16.8964166 C13.3139443,17.3902576 13.2993296,17.8840985 13.1142108,18.4132139 C12.8316609,17.9445689 12.6270558,17.5414334 12.8073032,17.0223964 C12.8998626,16.7553191 12.8316609,16.4882419 12.5880834,16.3017917 C12.2373319,16.0347144 12.1886164,15.6819709 12.3737353,15.3090705 C12.5003956,15.0470325 12.4370654,14.9210526 12.1934879,14.8202688 C11.706333,14.6086226 11.6965899,14.2256439 11.8963234,13.8023516 C12.052213,13.4647256 12.2373319,13.1371781 12.4078361,12.8096305 C12.4273223,12.6131019 12.5783403,12.5526316 12.7244868,12.5022396 C13.7475122,12.1444569 14.7607944,11.7362822 15.8130491,11.4692049 C16.0858559,11.3986562 16.397635,11.2978723 16.5827539,11.6657335 C16.7776159,11.9731243 16.6217263,12.1444569 16.3732773,12.3006719 C15.9835533,12.5425532 15.5646001,12.7390817 15.2235916,13.0615901 C15.0579589,13.2278835 14.8289961,13.1774916 14.6341342,13.2530795 C13.8693009,13.2984323 13.4600908,13.837626 13.0995961,14.4473684 C12.9583212,14.6892497 13.0070367,14.8152296 13.2652288,14.9210526 C13.6111088,15.0621501 13.9716034,15.0621501 14.3272265,15.1276596 C14.8777116,15.2133259 15.4184536,15.2536394 15.9250947,14.931131 C16.0225257,14.8605823 16.1394429,14.8202688 16.2661032,14.8857783 Z" id="Shape" fill="#EBC390"></path>
                    <path d="M8.61777075,11.9983203 C8.93442145,12.2099664 8.9587792,12.56271 8.9685223,12.8952968 C8.98800849,13.5403135 8.9587792,14.1853303 8.9782654,14.8303471 C8.99288004,15.3292273 8.62751384,15.6265398 8.39855103,16.0296753 C8.75904568,15.9490482 8.939293,15.9692049 8.81750427,16.4277716 C8.58854145,17.3045913 8.43265187,18.1965286 8.24266145,19.0834267 L8.24266145,19.0834267 C8.06728567,18.9020157 8.15984511,18.6853303 8.16958821,18.4787234 C8.18420286,18.131019 8.5641837,17.7782755 8.16471666,17.4154535 C8.11600117,17.3701008 8.23291835,17.1382979 8.31573469,16.8510638 C7.40962651,17.6170213 6.55223383,17.3902576 5.70458425,17.0072788 C5.4025482,16.8712206 5.06153974,17.0072788 4.69617354,16.8460246 C4.91539326,16.6646137 5.11025524,16.7301232 5.28563101,16.7150056 C5.78252904,16.674692 6.27942707,16.75028 6.7860682,16.6394177 C7.5265437,16.4781635 8.10625807,16.1254199 8.45700962,15.4148936 C8.64212849,14.8908175 8.64212849,14.8908175 7.91139609,14.4221725 C7.80909356,14.3566629 7.70679102,14.2861142 7.61423159,14.2054871 C7.1806637,13.8980963 6.71786651,13.7318029 6.18686764,13.9031355 C5.97251947,13.9636058 5.77765749,14.1298992 5.53408003,14.0139978 C5.26127326,13.7217245 4.94462256,14.2054871 4.60361411,13.8930571 C5.09564059,13.5403135 5.63151101,13.4193729 6.19661073,13.3740202 C6.21122538,13.3740202 6.24045468,13.368981 6.24532623,13.3639418 C6.28429862,13.2530795 6.18686764,13.2782755 6.14302369,13.2530795 C6.23558313,12.9658455 6.50351834,13.0111982 6.70325186,12.9658455 C7.32193863,12.8297872 8.00395553,12.8549832 8.34496398,12.1343785 C8.38880793,12.043673 8.52521131,12.0487122 8.61777075,11.9983203 Z" id="Shape" fill="#EBC391"></path>
                    <path d="M8.61777075,11.9983203 C8.12574426,13.1270997 7.02964567,12.9708847 6.13815214,13.2530795 C5.3440896,13.2732363 4.61822875,13.4848824 3.9605696,13.9736842 C3.75109298,14.12486 3.40521297,14.3868981 3.2200941,14.1550952 C2.99600283,13.8779395 3.35649748,13.6058231 3.53187326,13.3992161 C4.17978932,12.6433371 5.05666819,12.3006719 5.98713411,12.1243001 C6.85426989,11.9630459 7.73602032,11.9176932 8.61777075,11.9983203 Z" id="Shape" fill="#5F5F5C"></path>
                    <path d="M11.901195,11.7816349 C11.8086355,11.6354983 11.6722322,11.6506159 11.5309572,11.6808511 C10.2887122,11.9176932 9.04646709,11.6909295 7.80909356,11.600224 C7.1904068,11.5548712 6.61069243,11.5951848 6.02610651,11.7513998 C5.41716284,11.912654 4.81796228,12.1343785 4.17491777,12.1494961 C5.06641129,11.8068309 5.95303327,11.4692049 6.7763251,10.9703247 C7.06374651,10.7989922 7.41936961,10.8594625 7.74089187,10.9552072 C8.58854145,11.212206 9.46542033,11.4036954 10.3325561,11.3986562 C11.306866,11.393617 12.2957905,11.287794 13.2457426,11.0358343 C13.9277595,10.8544233 14.6049049,10.8645017 15.2917933,10.8947368 C15.5889578,10.9048152 15.3405088,11.0257559 15.3258942,11.1013438 C15.2576925,11.2172452 15.1456468,11.2827548 15.0287296,11.3029115 C14.0495482,11.4540873 13.089853,11.7010078 12.1058001,11.8169093 C12.0375984,11.8269877 11.9693967,11.8118701 11.901195,11.7816349 Z" id="Shape" fill="#EBC391"></path>
                    <path d="M11.901195,11.7816349 C12.7829454,11.4843225 13.7134113,11.418813 14.614648,11.2222844 C14.8484823,11.1718925 15.0871882,11.1416573 15.3258942,11.106383 C15.8374068,11.1215006 16.3537911,11.0963046 16.840946,11.287794 C17.0163218,11.3583427 17.2891285,11.4238522 17.240413,11.6203807 C17.1722114,11.9176932 16.938377,11.6153415 16.7776159,11.6556551 C16.7142857,11.6707727 16.6412125,11.6606943 16.5730108,11.6657335 C16.3878919,11.5347144 16.1784153,11.5095185 15.9738102,11.5699888 C14.765666,11.9227324 13.5526502,12.2754759 12.398093,12.8096305 C12.096057,12.9053751 11.9937544,12.7138858 11.954782,12.4619261 C11.9304243,12.2402016 11.9206812,12.0083987 11.901195,11.7816349 Z" id="Shape" fill="#5F5F5C"></path>
                    <path d="M16.1102136,10.6931691 C14.9946288,10.4210526 13.9375026,10.1741321 12.8901195,9.89697648 C12.1642587,9.70548712 11.511471,9.82642777 10.9512429,10.3303471 C10.4056293,10.8141097 9.82591498,10.9199328 9.17312737,10.6276596 C8.13548736,10.1640538 7.09784736,10.1086226 6.06020735,10.6326988 C5.92867552,10.6982083 5.77278594,10.7234043 5.62176791,10.7334826 C6.28917017,10.0481523 7.11246201,9.93729003 7.98934088,10.0884658 C8.31086314,10.143897 8.64212849,10.2295633 8.9295499,10.3807391 C9.631053,10.7536394 10.2594829,10.6075028 10.8002248,10.1086226 C11.3312237,9.61982083 11.9304243,9.49384099 12.5783403,9.62486002 C13.6403381,9.84658455 14.6974643,10.1237402 15.7497189,10.3908175 C15.8763792,10.4109742 16.0273973,10.4512878 16.1102136,10.6931691 Z" id="Shape" fill="#EBC492"></path>
                    <path d="M15.7886913,7.50335946 C15.4915268,7.64445689 15.2576925,7.47816349 15.0238581,7.39753639 C14.5318316,7.231243 14.0495482,7.02967525 13.5575218,6.86338186 C13.1629263,6.73236282 12.7683308,6.62150056 12.344506,6.79283315 C11.1899488,7.25643897 10.0110339,7.21612542 8.83211892,6.9087346 C8.11600117,6.72228443 7.43398426,6.79283315 6.75683891,7.08006719 C6.39634426,7.231243 6.01636341,7.33202688 5.62663946,7.38745801 C6.48890369,6.8281075 7.39501187,6.424972 8.45700962,6.64165733 C9.11466878,6.77771557 9.77232793,6.9087346 10.4494733,6.91881299 C10.9268851,6.92889138 11.3701961,6.86338186 11.8086355,6.64669653 C12.2763043,6.41489362 12.7732023,6.41993281 13.2749719,6.58118701 C13.9180164,6.78779395 14.5659325,6.97424412 15.208977,7.18085106 C15.413582,7.24636058 15.6474164,7.27659574 15.7886913,7.50335946 Z" id="Shape" fill="#EBC491"></path>
                    <path d="M6.8250406,8.73796193 C7.52167215,8.49104143 8.21343215,8.31970885 8.90032061,8.45072788 C9.40209019,8.54647256 9.86488737,8.50615901 10.3276846,8.39025756 C10.7174085,8.29451288 11.0730316,8.30963046 11.4481409,8.41545353 C12.0814423,8.59182531 12.6952575,8.55655095 13.3285589,8.33986562 C14.0592913,8.08790594 14.8095099,8.1131019 15.6181871,8.39529675 C15.2869218,8.51119821 15.2820502,8.5162374 15.0969313,8.46584546 C14.6049049,8.32474804 14.0982637,8.32978723 13.6257234,8.49608063 C12.743973,8.80347144 11.8622226,8.81858903 10.9756006,8.58678611 C10.7953533,8.54143337 10.6443353,8.55655095 10.4689595,8.5968645 C9.94770371,8.71276596 9.43619103,8.78835386 8.88570596,8.65733483 C8.33034934,8.52631579 7.75550652,8.71276596 7.19527834,8.79843225 C7.08810426,8.81858903 6.97605863,8.89921613 6.8250406,8.73796193 Z" id="Shape" fill="#EBC492"></path>
                    <path d="M16.2661032,14.8857783 C15.652288,15.3141097 14.9995004,15.4703247 14.2833826,15.2082867 C14.3613274,15.0923852 14.4831161,15.0621501 14.6000333,15.0167973 C15.3258942,15.0419933 15.9397094,14.7648376 16.5048091,14.3113102 C16.743515,14.1198208 16.7289004,13.993841 16.4853229,13.8325868 C16.2076446,13.6461366 15.8471499,13.6461366 15.608444,13.3891377 C15.5792147,13.3085106 15.5792147,13.2379619 15.6376733,13.1724524 C16.1150851,13.3135498 16.592497,13.4496081 17.0211933,13.7166853 C17.3134863,13.8980963 17.3622018,14.0996641 17.0699088,14.3213886 C16.8019736,14.5128779 16.5340384,14.6993281 16.2661032,14.8857783 Z" id="Shape" fill="#CBAF8C"></path>
                    <path d="M5.53408003,14.0139978 C5.74355665,13.943449 5.95303327,13.8729003 6.16250989,13.8023516 C6.4401882,13.6965286 6.70325186,13.7620381 6.96631553,13.8678611 C7.04426032,13.943449 7.01015947,14.0089586 6.94682933,14.0694289 C6.7860682,14.1651736 6.61069243,14.1047032 6.4401882,14.1097424 C5.85560228,14.1298992 5.37819045,14.3969765 4.9884665,14.8404255 C4.76924678,15.087346 4.78386143,15.2788354 5.11025524,15.399776 C5.38793355,15.5005599 5.66561186,15.5963046 5.95790482,15.6567749 C6.1040513,15.7071669 6.26481242,15.7172452 6.38172961,15.8381859 C6.39147271,15.9339306 6.37685806,15.9994401 6.25994088,15.9641657 C5.64125411,15.9792833 5.07615439,15.7777156 4.52566932,15.4955207 C4.28209185,15.3695409 4.24799101,15.243561 4.41362368,14.9966405 C4.70591664,14.5683091 5.06641129,14.2306831 5.53408003,14.0139978 Z" id="Shape" fill="#CAAF8D"></path>
                    <path d="M6.25994088,15.9641657 C6.29891327,15.9339306 6.33301412,15.9036954 6.37198651,15.8734602 C6.51326144,15.6618141 6.75196736,15.7424412 6.93221468,15.6618141 C7.27322313,15.5761478 7.58987384,15.4300112 7.901653,15.2838746 C8.30599159,15.0923852 8.31086314,15.0319149 7.97959778,14.7043673 C7.90652455,14.6287794 7.82370821,14.5582307 7.79447891,14.4524076 C7.80422201,14.3667413 7.82370821,14.3012318 7.93088229,14.3465845 C8.14035891,14.3516237 8.27676229,14.5128779 8.42778032,14.618701 C8.85160511,14.9260918 8.84673356,15.0671892 8.45213807,15.4199328 C7.95036849,15.6114222 7.44859891,15.8029115 6.94682933,15.9944009 C6.71786651,16.0800672 6.48403214,16.1455767 6.25994088,15.9641657 Z" id="Shape" fill="#CCB08E"></path>
                    <path d="M8.24266145,19.0884658 C8.30599159,19.0884658 8.48136736,19.0279955 8.40829412,19.1287794 C7.98446933,19.7082867 7.99908398,20.3079507 8.29624849,20.9479283 C7.43885581,20.1416573 7.43885581,19.7637178 8.24266145,19.0884658 C8.247533,19.0834267 8.24266145,19.0884658 8.24266145,19.0884658 Z" id="Shape" fill="#EBC391"></path>
                    <path d="M7.64833243,21.2049272 C7.65320398,21.5677492 7.39014032,21.7693169 7.21476454,22.006159 C7.03451722,22.2480403 6.93221468,22.5302352 6.68376567,22.8527436 C6.79093975,22.0817469 7.25373694,21.6634938 7.64833243,21.2049272 Z" id="Shape" fill="#ECC695"></path>
                    <path d="M15.6376733,13.1852112 C15.6376733,13.2667994 15.6376733,13.3421116 15.6376733,13.4236997 C15.4038389,13.6308082 15.1992339,13.4990119 14.9995004,13.3232835 C14.9995004,13.091071 15.0920598,13.084795 15.2235916,13.1726592 C15.3648666,13.1726592 15.5012699,13.1789352 15.6376733,13.1852112 Z" id="Shape" fill="#C9AC89"></path>
                    <path d="M15.2235916,13.219467 C15.1553899,13.2666385 15.0823167,13.3138101 15.014115,13.3609816 C14.9848857,13.423877 14.9459133,13.4553246 14.8971978,13.4553246 C14.7802806,13.423877 14.668235,13.3845674 14.5951618,13.219467 C14.7802806,12.928576 15.0092435,13.1015382 15.2187201,13.0622286 C15.2187201,13.1172621 15.2235916,13.1722955 15.2235916,13.219467 Z" id="Shape" fill="#CCB191"></path>
                    <path d="M7.82370821,25.2110862 C8.36445018,24.6164614 8.98800849,24.3544233 9.76258484,24.3493841 C11.2435358,24.3342665 12.7196153,24.2536394 14.1810801,23.956327 C14.4149144,23.9109742 14.6633635,23.9512878 14.9118125,24.0067189 C12.5880834,24.6567749 10.1669234,24.712206 7.82370821,25.2110862 Z" id="Shape" fill="#EBC491"></path>
                    <path d="M14.5951618,13.1573348 C14.7072074,13.162374 14.8289961,13.1371781 14.9118125,13.2530795 C14.7900237,13.4344905 14.5854187,13.4496081 14.4051713,13.4798432 C13.8741725,13.5806271 13.6598243,14.019037 13.4308615,14.4322508 C13.2895865,14.6892497 13.5136778,14.7547592 13.6793105,14.8555431 C13.9667319,15.0319149 14.3418412,14.8505039 14.6000333,15.1175812 C14.517217,15.2234043 14.3954282,15.1982083 14.2833826,15.2082867 C13.8546863,15.2586786 13.4600908,15.1326988 13.0654953,14.9865622 C12.8657618,14.9109742 12.8024316,14.7900336 12.8755049,14.5683091 C13.1142108,13.8174692 13.8303285,13.2228443 14.5951618,13.1573348 Z" id="Shape" fill="#C9AC89"></path>
                    <path d="M6.99067327,13.9182531 C6.71299496,13.8980963 6.4499313,13.7569989 6.16250989,13.8023516 C6.75683891,13.5453527 7.24886539,13.7771557 7.72140567,14.1349384 C7.41449806,14.306271 7.1806637,14.1903695 6.99067327,13.9182531 Z" id="Shape" fill="#EACAA0"></path>
                    <path d="M6.99067327,13.9182531 C7.22937919,14.0089586 7.45834201,14.1298992 7.72140567,14.1349384 C7.78960736,14.2054871 7.8626806,14.2760358 7.93088229,14.3415454 C7.89678145,14.3717805 7.8626806,14.4020157 7.82857976,14.43729 C7.44859891,14.4574468 7.09784736,14.4070549 6.87862764,14.0291153 C6.91760003,13.993841 6.95657243,13.9535274 6.99067327,13.9182531 Z" id="Shape" fill="#CDB393"></path>
                    <path d="M14.5951618,15.1226204 C14.1908232,15.0722284 13.7864846,15.0923852 13.4016322,14.8958567 C13.133697,14.7597984 13.1385685,14.6388578 13.2603572,14.4070549 C13.6208519,13.7217245 14.1080068,13.2530795 14.9069409,13.2530795 C14.9410418,13.2530795 14.9800142,13.2530795 15.014115,13.2530795 C15.2235916,13.2883539 15.4281967,13.3286674 15.6376733,13.3639418 C15.998168,13.4848824 16.3586626,13.5907055 16.6850564,13.7973124 C16.9676063,13.9787234 17.0114502,14.1298992 16.7094142,14.3365062 C16.0663697,14.774916 15.4476829,15.2788354 14.5951618,15.1226204 Z" id="Shape" fill="#FDFDFD"></path>
                    <path d="M6.87862764,14.0291153 C7.19527834,14.1651736 7.51192905,14.3012318 7.82857976,14.43729 C8.03318483,14.6388578 8.45700962,14.7194849 8.41803722,15.0369541 C8.37906483,15.3745801 7.95036849,15.3846585 7.68243328,15.5156775 C7.47295666,15.6215006 7.25860849,15.7575588 7.01015947,15.7575588 C6.91760003,15.8129899 6.87862764,15.7575588 6.85426989,15.6718925 C6.85914144,15.5761478 6.91272848,15.5055991 6.96144398,15.4300112 C7.24399384,14.9512878 7.22450764,14.8756999 6.74222426,14.5380739 C6.4401882,14.306271 6.17225299,14.3365062 5.91893242,14.6237402 C5.65586876,14.9160134 5.75329975,15.1730123 5.97251947,15.424972 C6.03097806,15.4904815 6.07969355,15.5660694 6.0943082,15.6567749 C6.074822,15.7424412 6.04072116,15.8029115 5.94329017,15.7525196 C5.77765749,15.7222844 5.60228172,15.7021277 5.44152059,15.6517357 C5.15409918,15.555991 4.72540284,15.5459127 4.65720115,15.2334826 C4.57925636,14.8908175 4.96410876,14.6690929 5.20281467,14.4574468 C5.68022651,14.0341545 6.25019778,13.8779395 6.87862764,14.0291153 Z" id="Shape" fill="#FDFDFD"></path>
                    <path d="M5.93841862,15.8128036 C5.97739101,15.7724755 6.01636341,15.7321475 6.0553358,15.6918194 C6.0845651,15.6313273 6.12840904,15.604442 6.18199609,15.5977206 C6.41583045,15.6985408 6.67402257,15.4229657 6.89324229,15.6985408 C6.93221468,15.7388688 6.97605863,15.7859182 7.01503102,15.8262463 C6.82016905,16.0413292 6.58633468,15.9270664 6.37198651,15.9808371 C6.22584003,15.9203451 6.06020735,15.9942798 5.93841862,15.8128036 Z" id="Shape" fill="#F7F6F4"></path>
                    <path d="M15.1212891,13.5755879 C15.7351043,13.8174692 15.9591956,14.12486 15.7838198,14.4977604 C15.5353708,15.0369541 15.0238581,15.137738 14.3856851,14.774916 C14.6633635,14.4020157 15.1505184,14.1550952 15.1212891,13.5755879 Z" id="Shape" fill="#63534B"></path>
                    <path d="M15.1212891,13.5755879 C15.2771787,14.0845465 15.0336012,14.4826428 14.3856851,14.774916 C14.1615939,14.5481523 14.0349336,14.2961926 14.2541533,13.9988802 C14.4685015,13.7116461 14.6925927,13.4143337 15.1212891,13.5755879 Z" id="Shape" fill="#463A35"></path>
                    <path d="M6.15276679,15.6466965 C6.11866594,15.6466965 6.08943665,15.6517357 6.0553358,15.6668533 C5.48049298,15.0923852 5.46100679,14.8908175 5.90431777,14.4473684 C6.21609693,14.1349384 6.62530707,14.1349384 6.90785693,14.4675252 C7.08323271,15.0167973 6.70812341,15.4854423 6.15276679,15.6466965 Z" id="Shape" fill="#453934"></path>
                    <path d="M6.0553358,15.6618141 C6.46454595,15.3846585 6.79093975,14.8656215 6.7860682,14.3465845 C7.40475497,14.7144457 7.62884623,15.3493841 6.88837074,15.6618141 C6.66427947,15.762598 6.29891327,15.8784994 6.0553358,15.6618141 Z" id="Shape" fill="#64544C"></path>
                </g>
                <g id="magician" transform="translate(0.000000, 8.617021)">
                    <path d="M27.2928135,35.4970616 C23.0134785,36.3092031 18.7342216,36.5629624 14.4558242,36.2583395 C12.5110342,36.1203609 10.5662442,35.8666016 8.6213761,35.4970616 C9.70437619,31.2500672 9.93089981,27.0039512 9.30016555,22.7569568 C10.9849105,20.5658277 15.0611635,20.5210325 16.8646009,20.4015788 C20.8312255,20.1395153 22.6455241,22.0586796 26.6130864,22.7569568 C25.9832898,27.0039512 26.2098134,31.2499874 27.2928135,35.4970616 Z" id="Shape" fill="#666666"></path>
                    <path d="M27.4406085,19.2184184 L27.4259825,19.4559202 C27.3156581,19.8863674 27.2135117,20.3178545 27.1213519,20.7483016 C26.9717888,21.4440885 26.7056945,22.1399554 26.6026045,22.8357423 C22.6098527,22.1361957 18.74264,21.8040597 14.7508317,22.0665997 C12.9359445,22.1862705 11.1339884,22.5175266 9.31910115,22.8357423 C9.21601116,22.1426752 9.09019575,21.4487282 8.94149767,20.7547811 C8.8484729,20.3215342 8.74632652,19.8891672 8.63600214,19.4559202 L8.6213761,19.2258578 C9.41849532,19.1738618 10.2164795,19.1293852 11.0144637,19.0913081 C12.1571822,19.0365922 13.3008442,18.9948354 14.4445062,18.9669976 C18.0177424,18.8788443 21.5927871,18.9206011 25.163271,19.0913081 C25.9230388,19.1274653 26.6817843,19.1701821 27.4406085,19.2184184 Z" id="Shape" fill="#F95428"></path>
                    <g id="Group" transform="translate(20.311223, 9.385104) rotate(-102.000000) translate(-20.311223, -9.385104) translate(14.811223, -9.614896)" fill="#FACE17">
                        <polygon id="Shape" points="3.46118756 34.7093163 3.99354522 35.7006228 4.96687395 36.2427631 3.99354522 36.7849536 3.46118756 37.7762601 2.92887917 36.7849536 1.95550117 36.2427631 2.92887917 35.7006228"></polygon>
                        <polygon id="Shape" points="6.77056055 4.13927997 7.30286894 5.13058645 8.27624693 5.67277695 7.30286894 6.21491728 6.77056055 7.20627394 6.23820289 6.21491728 5.26492343 5.67277695 6.23820289 5.13058645"></polygon>
                        <polygon id="Shape-Copy" transform="translate(2.333791, 2.463658) rotate(-32.000000) translate(-2.333791, -2.463658) " points="2.33377329 1.33711444 2.72481994 2.0653522 3.43988701 2.46365849 2.72481994 2.86192791 2.33377329 3.59020254 1.94269046 2.86192791 1.22769577 2.46365849 1.94269046 2.0653522"></polygon>
                        <polygon id="Shape" points="9.19270841 0 9.5113052 0.593318779 10.0938146 0.917750002 9.5113052 1.2422314 9.19270841 1.8355 8.87416088 1.2422314 8.29160218 0.917750002 8.87416088 0.593318779"></polygon>
                    </g>
                    <path d="M27.4406085,19.2059627 L27.4259825,19.4335427 C27.3156581,19.8460077 27.2135117,20.2594691 27.1213519,20.671934 C26.4692349,20.6328415 25.816253,20.5990379 25.163271,20.568837 C20.4491251,20.3528314 15.7277447,20.3528314 11.0144637,20.568837 C10.3231867,20.6008775 9.63183107,20.6363675 8.94149767,20.6782195 C8.8484729,20.2630717 8.74632652,19.8487672 8.63600214,19.4336194 L8.6213761,19.213168 C9.41849532,19.1633441 10.2164795,19.1207255 11.0144637,19.0842391 C12.1571822,19.0318091 13.3008442,18.9917967 14.4445062,18.9651218 C18.0177424,18.8806512 21.5927871,18.9206636 25.163271,19.0842391 C25.9230388,19.1188092 26.6817843,19.1597415 27.4406085,19.2059627 Z" id="Shape" fill="#E54728"></path>
                    <path d="M14.535623,36.1822789 C12.5642338,36.0443483 10.5928445,35.7906772 8.6213761,35.4212657 C9.71918858,31.1757472 9.9488104,26.9311068 9.30944948,22.6855884 C11.1375528,22.3680605 12.8653143,22.1523553 14.6934176,22.0329431 C15.0112763,25.8239609 15.4322491,32.1265748 14.535623,36.1822789 Z" id="Shape" fill="#4D4D4D"></path>
                    <path d="M14.6809719,22.0888439 C12.8907989,22.2067996 11.0997728,22.4217375 9.30959986,22.7353924 C9.14500944,21.6252212 8.92007436,20.5141827 8.63580297,19.4040115 L8.6213761,19.1772464 C9.40764053,19.1260745 10.1947582,19.0821565 10.9818758,19.0446251 C12.1090332,18.9906935 13.2371214,18.9495352 14.3652096,18.9220963 C14.3652096,18.9220174 14.5225866,20.1839699 14.6809719,22.0888439 Z" id="Shape" fill="#E54728"></path>
                    <path d="M0.681302401,20.5776316 C0.339965136,20.5776316 0.0452059403,20.3183356 0.0046657689,19.9662463 C-0.0390109728,19.5868837 0.228852132,19.2433025 0.602966557,19.1990925 C3.25438786,18.8850906 5.94391849,18.6403457 8.59706491,18.4718549 C9.37328765,18.4214429 10.1801704,18.3761992 10.9941888,18.3375553 C15.6959861,18.113484 20.4645139,18.1134045 25.1671738,18.3375553 C25.9037974,18.3725416 26.6714729,18.4152407 27.4486367,18.4644601 C30.1503999,18.6346206 32.8787456,18.881751 35.5575335,19.1990925 C35.9316479,19.243382 36.1995894,19.5869632 36.1558343,19.9663258 C36.1121575,20.3456885 35.7734079,20.6179454 35.3992935,20.5730198 C32.7449709,20.2585408 30.0414825,20.0136368 27.3639493,19.8450666 C26.5935292,19.7961653 25.8331461,19.7539432 25.103423,19.719275 C20.4431853,19.4971121 15.7177068,19.4971121 11.0582532,19.719275 C10.251841,19.7575213 9.45287812,19.8022879 8.68339901,19.8523819 C6.05354163,20.0195209 3.38855466,20.2618804 0.761284944,20.5730198 C0.734388853,20.5760414 0.707649591,20.5776316 0.681302401,20.5776316 Z" id="Shape" fill="#4D4D4D"></path>
                </g>
                <g id="magic" transform="translate(34.740850, 23.736693) rotate(-8.000000) translate(-34.740850, -23.736693) translate(27.740850, 16.236693)">
                    <path d="M4.32018101,2.87997546 L2.56437991,4.3043823 L11.9282786,14.2200195 C12.1197115,14.4227119 12.6253569,14.2159193 13.0576889,13.7581819 C13.4900209,13.3004445 13.6852825,12.7650123 13.4938496,12.5622967 L4.32018101,2.87997546 Z" id="Shape" fill="#515262"></path>
                    <path d="M0.412629871,2.0645668 L3.20484399,4.98781231 C3.39665524,5.18862477 3.90335791,4.98372674 4.33659396,4.530183 C4.76983001,4.07663925 4.96552178,3.54613538 4.77371052,3.34532292 L1.98151833,0.422077412 L0.412629871,2.0645668 Z" id="Shape" fill="#D9D9D9"></path>
                    <path d="M12.5745931,13.5630468 L1.17027184,1.75764667 L0.463034609,2.10986542 L11.9522809,14.219998 C12.1443322,14.4227464 12.6516112,14.2158967 13.08534,13.7580328 C13.1958957,13.6413192 13.2909118,13.5195775 13.3680616,13.3995736 C13.0358017,13.6376582 12.7176988,13.7141233 12.5745931,13.5630468 Z" id="Shape" fill="#000000" opacity="0.1"></path>
                    <ellipse id="Oval" fill="#E6E6E6" transform="translate(1.207727, 1.248188) rotate(-135.000000) translate(-1.207727, -1.248188) " cx="1.20601272" cy="1.24818828" rx="1" ry="1.17126486"></ellipse>
                </g>
            </g>
        </g>
    </g>
</svg>
